<svg width="158" height="40" viewBox="0 0 158 40" fill="none" xmlns="http://www.w3.org/2000/svg">
<path d="M40 13.3789C40.0001 10.6839 39.1891 8.05165 37.673 5.82698C36.1569 3.60232 34.0065 1.88894 31.5035 0.911303C29.0005 -0.0663525 26.2615 -0.262693 23.6455 0.347981C21.0293 0.958655 18.658 2.34788 16.8421 4.33368H0V40H35.5601V23.3313C36.9557 22.0788 38.0726 20.5451 38.8377 18.8301C39.6027 17.1152 39.9988 15.2578 40 13.3789ZM33.1579 13.3789C33.1606 14.6703 32.7814 15.9335 32.0683 17.0086C31.3551 18.0836 30.3402 18.9223 29.1518 19.4183C27.9634 19.9145 26.6552 20.0457 25.3924 19.7953C24.1298 19.5451 22.9695 18.9245 22.0584 18.0123C21.1474 17.1 20.5266 15.9372 20.2745 14.6707C20.0224 13.4044 20.1505 12.0913 20.6424 10.898C21.1343 9.70457 21.968 8.68445 23.0379 7.96669C24.108 7.24894 25.3661 6.86582 26.6532 6.8658C28.376 6.8658 30.0285 7.55157 31.2479 8.77262C32.4675 9.99367 33.1544 11.6503 33.1579 13.3789ZM28.7179 33.1348H6.84211V11.1988H13.5088C13.38 11.9185 13.3123 12.6478 13.3063 13.3789C13.31 16.9296 14.7173 20.3337 17.2196 22.8444C19.7217 25.355 23.1144 26.7672 26.6532 26.7707C27.3451 26.767 28.0355 26.7081 28.7179 26.5947V33.1348Z" fill="white"/>
<path d="M54.688 16.952V21.72H63.2V25.592H54.688V30.648H64.8V35H49.664V12.6H64.8V16.952H54.688ZM73.837 35.288C71.7463 35.288 70.125 34.4987 68.973 32.92C67.8423 31.32 67.277 29.1867 67.277 26.52C67.277 23.8107 67.8423 21.6667 68.973 20.088C70.125 18.5093 71.757 17.72 73.869 17.72C75.2983 17.72 76.397 18.04 77.165 18.68C77.9543 19.2987 78.4983 19.928 78.797 20.568H79.053V10.968H84.077V35H79.053V32.28H78.797C78.4343 33.0053 77.869 33.688 77.101 34.328C76.333 34.968 75.245 35.288 73.837 35.288ZM75.693 31.352C76.8237 31.352 77.6663 30.872 78.221 29.912C78.797 28.952 79.085 27.8213 79.085 26.52C79.085 25.24 78.8077 24.1307 78.253 23.192C77.6983 22.2533 76.845 21.784 75.693 21.784C74.541 21.784 73.6877 22.2533 73.133 23.192C72.5997 24.1093 72.333 25.2187 72.333 26.52C72.333 27.8213 72.5997 28.952 73.133 29.912C73.6877 30.872 74.541 31.352 75.693 31.352ZM103.575 16.952H97.6868V35H92.7268V16.952H86.8388V12.6H103.575V16.952ZM111.406 35.288C109.614 35.288 108.099 34.8827 106.862 34.072C105.646 33.24 104.739 32.1627 104.142 30.84C103.566 29.496 103.278 28.056 103.278 26.52C103.278 24.984 103.566 23.5547 104.142 22.232C104.739 20.888 105.646 19.8 106.862 18.968C108.099 18.136 109.635 17.72 111.47 17.72C113.859 17.72 115.758 18.4773 117.166 19.992C118.574 21.4853 119.278 23.6613 119.278 26.52V27.896H108.078V28.152C108.078 29.0267 108.376 29.784 108.974 30.424C109.592 31.0427 110.371 31.352 111.31 31.352C112.035 31.352 112.654 31.192 113.166 30.872C113.678 30.5307 114.04 30.0827 114.254 29.528H119.15C118.723 31.2133 117.838 32.6 116.494 33.688C115.171 34.7547 113.475 35.288 111.406 35.288ZM114.51 24.696C114.488 23.544 114.19 22.6907 113.614 22.136C113.059 21.5813 112.312 21.304 111.374 21.304C110.414 21.304 109.646 21.6027 109.07 22.2C108.515 22.7973 108.227 23.6293 108.206 24.696H114.51ZM129.813 35.288C127.999 35.288 126.474 34.872 125.237 34.04C124.021 33.208 123.114 32.1307 122.517 30.808C121.941 29.464 121.653 28.024 121.653 26.488C121.653 24.952 121.941 23.5227 122.517 22.2C123.114 20.856 124.021 19.7787 125.237 18.968C126.474 18.136 127.999 17.72 129.813 17.72C132.074 17.72 133.866 18.3707 135.189 19.672C136.533 20.9733 137.354 22.6267 137.653 24.632H132.789C132.661 23.7573 132.351 23.0533 131.861 22.52C131.37 21.9867 130.709 21.72 129.877 21.72C128.682 21.72 127.829 22.1893 127.317 23.128C126.805 24.0453 126.549 25.1653 126.549 26.488C126.549 27.832 126.805 28.9733 127.317 29.912C127.829 30.8293 128.682 31.288 129.877 31.288C130.709 31.288 131.37 31.0213 131.861 30.488C132.351 29.9333 132.661 29.2293 132.789 28.376H137.653C137.354 30.3813 136.543 32.0347 135.221 33.336C133.898 34.6373 132.095 35.288 129.813 35.288ZM140.445 11.256H145.437V20.536H145.693C146.056 19.7467 146.643 19.0853 147.453 18.552C148.285 17.9973 149.288 17.72 150.461 17.72C152.68 17.72 154.216 18.424 155.069 19.832C155.923 21.2187 156.349 22.776 156.349 24.504V35H151.357V25.368C151.357 24.2587 151.112 23.384 150.621 22.744C150.131 22.104 149.395 21.784 148.413 21.784C147.432 21.784 146.685 22.1147 146.173 22.776C145.683 23.4373 145.437 24.3013 145.437 25.368V35H140.445V11.256Z" fill="white"/>
</svg>
