<svg width="159" height="40" viewBox="0 0 159 40" fill="none" xmlns="http://www.w3.org/2000/svg">
<path d="M18.7529 7.82352V2.82352H2.98816V37.1765H18.7529V32.1765C15.5235 32.1765 12.4263 30.8935 10.1428 28.61C7.85927 26.3265 6.57639 23.2294 6.57639 20C6.57639 16.7706 7.85927 13.6734 10.1428 11.3899C12.4263 9.1064 15.5235 7.82352 18.7529 7.82352Z" fill="#E0E0E0"/>
<path d="M18.7529 7.82352V32.1765C21.9823 32.1765 25.0795 30.8935 27.363 28.61C29.6466 26.3265 30.9294 23.2294 30.9294 20C30.9294 16.7706 29.6466 13.6734 27.363 11.3899C25.0795 9.1064 21.9823 7.82352 18.7529 7.82352Z" fill="#E0E0E0"/>
<path d="M39.7764 10.8824H43.3058V27.8824H39.7764V10.8824Z" fill="#E0E0E0"/>
<path d="M45.2823 22.0588C45.2823 20.8358 45.6455 19.6402 46.3257 18.6238C47.0059 17.6073 47.9726 16.8156 49.1033 16.3492C50.2341 15.8828 51.4777 15.7626 52.6768 16.0038C53.8758 16.2449 54.9763 16.8367 55.8386 17.704C56.701 18.5714 57.2865 19.6752 57.5209 20.8756C57.7551 22.0761 57.6278 23.3191 57.1549 24.4471C56.6819 25.5749 55.8849 26.5372 54.8645 27.2115C53.8442 27.886 52.6465 28.2422 51.4235 28.2353C50.6123 28.2416 49.8079 28.086 49.0577 27.7773C48.3075 27.4687 47.6263 27.0134 47.0543 26.4382C46.4823 25.8629 46.031 25.1792 45.7266 24.4272C45.4224 23.6752 45.2714 22.87 45.2823 22.0588ZM54.1294 22.0588C54.1155 21.5315 53.9464 21.02 53.6434 20.5883C53.3403 20.1566 52.9168 19.8238 52.4255 19.6315C51.9343 19.4393 51.3974 19.3961 50.8818 19.5075C50.3662 19.6188 49.8949 19.8796 49.5268 20.2575C49.1586 20.6353 48.9101 21.1132 48.8122 21.6315C48.7143 22.1499 48.7714 22.6855 48.9763 23.1715C49.1812 23.6575 49.5249 24.0725 49.9644 24.3641C50.4038 24.6559 50.9195 24.8115 51.447 24.8118C51.8062 24.8188 52.1629 24.7516 52.4949 24.6145C52.8269 24.4774 53.127 24.2733 53.3765 24.0149C53.6261 23.7566 53.8196 23.4494 53.9451 23.1129C54.0706 22.7763 54.1254 22.4175 54.1058 22.0588H54.1294Z" fill="#E0E0E0"/>
<path d="M71.5294 16.2353V27.3059C71.5294 31.2118 68.4706 32.8706 65.3765 32.8706C64.285 32.9601 63.1903 32.7433 62.2156 32.2445C61.2408 31.7456 60.4246 30.9846 59.8588 30.0471L62.8353 28.3294C63.0765 28.8158 63.4601 29.2169 63.9352 29.4796C64.4102 29.7423 64.954 29.8541 65.4941 29.8C65.8382 29.8423 66.1874 29.8082 66.5167 29.7C66.8461 29.5916 67.1474 29.412 67.3992 29.1736C67.651 28.9353 67.847 28.6443 67.9733 28.3214C68.0995 27.9986 68.1528 27.6518 68.1294 27.3059V26.2353C67.7187 26.7333 67.1975 27.1286 66.6074 27.39C66.0172 27.6514 65.3742 27.7716 64.7294 27.7412C63.1693 27.7412 61.6732 27.1214 60.57 26.0182C59.4668 24.9152 58.847 23.4189 58.847 21.8588C58.847 20.2987 59.4668 18.8026 60.57 17.6994C61.6732 16.5962 63.1693 15.9765 64.7294 15.9765C65.3742 15.946 66.0172 16.0662 66.6074 16.3276C67.1975 16.5891 67.7187 16.9843 68.1294 17.4823V16.3059L71.5294 16.2353ZM68.1294 21.8235C68.1528 21.2607 68.0074 20.7036 67.7118 20.2241C67.4161 19.7446 66.9839 19.3645 66.4703 19.1326C65.9569 18.9007 65.386 18.8278 64.8307 18.9231C64.2755 19.0183 63.7614 19.2775 63.3547 19.6673C62.948 20.057 62.6672 20.5596 62.5483 21.1103C62.4295 21.6611 62.4781 22.2346 62.6879 22.7574C62.8978 23.2802 63.2592 23.7283 63.7256 24.0441C64.1922 24.3599 64.7426 24.5289 65.3059 24.5294C65.6735 24.5559 66.0426 24.5049 66.3892 24.38C66.7359 24.2549 67.0526 24.0586 67.3186 23.8035C67.5847 23.5486 67.7943 23.2406 67.934 22.8995C68.0736 22.5585 68.1402 22.1919 68.1294 21.8235Z" fill="#E0E0E0"/>
<path d="M73.5176 22.0588C73.5176 20.8367 73.8802 19.6421 74.5594 18.6261C75.2386 17.6101 76.2039 16.8185 77.3332 16.3514C78.4624 15.8842 79.7049 15.7626 80.9034 16.0019C82.1019 16.2412 83.2023 16.8306 84.0657 17.6955C84.929 18.5606 85.5163 19.6622 85.7533 20.8611C85.9903 22.06 85.8663 23.3022 85.397 24.4306C84.9277 25.5591 84.1342 26.5228 83.117 27.2001C82.0997 27.8774 80.9044 28.2376 79.6823 28.2353C78.8696 28.2432 78.0634 28.0887 77.3112 27.7809C76.5589 27.4732 75.8756 27.0183 75.3015 26.4431C74.7273 25.8678 74.2737 25.1836 73.9674 24.4308C73.6612 23.678 73.5082 22.8715 73.5176 22.0588ZM82.3647 22.0588C82.3508 21.5311 82.1814 21.0191 81.8779 20.5871C81.5743 20.1552 81.15 19.8223 80.6581 19.6305C80.1662 19.4386 79.6287 19.3961 79.1128 19.5085C78.5969 19.6207 78.1256 19.8828 77.758 20.2618C77.3903 20.6407 77.1427 21.1198 77.0462 21.6388C76.9496 22.1579 77.0083 22.6939 77.215 23.1796C77.4217 23.6655 77.7673 24.0795 78.2083 24.3699C78.6493 24.6601 79.1661 24.8139 79.6941 24.8118C80.0533 24.8188 80.41 24.7516 80.742 24.6145C81.074 24.4774 81.3741 24.2733 81.6236 24.0149C81.8731 23.7566 82.0667 23.4494 82.1922 23.1129C82.3177 22.7763 82.3724 22.4175 82.3529 22.0588H82.3647Z" fill="#E0E0E0"/>
<path d="M87.4823 13.1176C87.4823 12.7035 87.6051 12.2986 87.8352 11.9542C88.0654 11.6098 88.3924 11.3414 88.775 11.1829C89.1577 11.0244 89.5788 10.983 89.985 11.0638C90.3911 11.1446 90.7643 11.344 91.0572 11.6369C91.3501 11.9298 91.5495 12.3029 91.6303 12.7091C91.7111 13.1153 91.6696 13.5364 91.5111 13.9191C91.3527 14.3016 91.0842 14.6287 90.7398 14.8588C90.3955 15.0889 89.9907 15.2118 89.5764 15.2118C89.0229 15.2056 88.4938 14.9831 88.1024 14.5916C87.711 14.2002 87.4884 13.6712 87.4823 13.1176ZM87.8235 16.2353H91.3529V27.8824H87.8235V16.2353Z" fill="#E0E0E0"/>
<path d="M106.459 22.0588C106.498 22.8334 106.384 23.6082 106.123 24.3386C105.862 25.0689 105.459 25.7405 104.938 26.3145C104.416 26.8886 103.786 27.3538 103.084 27.6834C102.382 28.0131 101.622 28.2006 100.847 28.2353C100.19 28.2791 99.5306 28.1738 98.9195 27.9273C98.3083 27.6807 97.7608 27.2994 97.3176 26.8118V32.5647H93.7882V16.2353H97.3176V17.3294C97.7614 16.8432 98.3094 16.4636 98.9206 16.2192C99.5317 15.9746 100.19 15.8715 100.847 15.9176C101.619 15.9523 102.376 16.1388 103.076 16.4662C103.775 16.7936 104.404 17.2558 104.925 17.826C105.446 18.3962 105.85 19.0635 106.113 19.7899C106.376 20.5161 106.494 21.2871 106.459 22.0588ZM102.929 22.0588C102.915 21.5123 102.741 20.9822 102.427 20.5348C102.113 20.0874 101.674 19.7425 101.165 19.5435C100.656 19.3445 100.099 19.3002 99.5649 19.4161C99.0308 19.532 98.5428 19.8031 98.162 20.1952C97.7811 20.5873 97.5246 21.0831 97.4244 21.6205C97.3242 22.1578 97.3848 22.7127 97.5987 23.2158C97.8126 23.7187 98.1701 24.1474 98.6266 24.4481C99.083 24.7488 99.6181 24.908 100.165 24.9059C100.539 24.9218 100.913 24.8584 101.261 24.7198C101.609 24.5812 101.924 24.3706 102.185 24.1018C102.446 23.8329 102.647 23.5119 102.776 23.1599C102.904 22.8078 102.956 22.4326 102.929 22.0588Z" fill="#E0E0E0"/>
<path d="M117.2 24.3882C117.2 27.0706 114.847 28.2118 112.353 28.2118C111.336 28.3033 110.314 28.0877 109.421 27.5927C108.527 27.0978 107.803 26.3462 107.341 25.4353L110.376 23.7177C110.497 24.1374 110.757 24.5032 111.115 24.7538C111.473 25.0044 111.905 25.1245 112.341 25.0941C113.176 25.0941 113.6 24.8353 113.6 24.3647C113.6 23.0824 107.87 23.7647 107.87 19.7294C107.87 17.1882 110.012 15.9177 112.435 15.9177C113.356 15.8764 114.272 16.0854 115.084 16.5225C115.896 16.9595 116.574 17.6084 117.047 18.4L114.012 20C113.878 19.6965 113.658 19.4384 113.381 19.2567C113.103 19.0751 112.779 18.9778 112.447 18.9765C111.835 18.9765 111.47 19.2118 111.47 19.6235C111.47 20.9647 117.2 20.0824 117.2 24.3882Z" fill="#E0E0E0"/>
<path d="M129.988 16.2353V27.8824H126.459V26.7882C126.058 27.2726 125.548 27.6558 124.973 27.9072C124.396 28.1586 123.769 28.2709 123.141 28.2353C120.788 28.2353 118.776 26.5529 118.776 23.4118V16.2353H122.306V22.8824C122.278 23.1602 122.31 23.4408 122.402 23.7048C122.494 23.9687 122.641 24.2096 122.834 24.4111C123.028 24.6123 123.263 24.7693 123.523 24.8711C123.783 24.9727 124.062 25.0167 124.341 25C125.612 25 126.506 24.2471 126.506 22.6471V16.2353H129.988Z" fill="#E0E0E0"/>
<path d="M149.988 20.7294V27.8824H146.459V21.0353C146.459 19.8588 145.906 19.1294 144.788 19.1294C143.671 19.1294 142.965 19.9412 142.965 21.3176V27.8824H139.435V21.0353C139.435 19.8588 138.882 19.1294 137.765 19.1294C136.647 19.1294 135.941 19.9412 135.941 21.3176V27.8824H132.412V16.2353H135.941V17.3059C136.307 16.8329 136.784 16.4584 137.331 16.216C137.876 15.9736 138.475 15.8711 139.071 15.9176C139.667 15.8865 140.262 16.0112 140.796 16.2793C141.331 16.5474 141.786 16.9499 142.118 17.4471C142.506 16.9275 143.019 16.5148 143.609 16.2474C144.199 15.9799 144.848 15.8665 145.494 15.9176C148.247 15.9176 149.988 17.8235 149.988 20.7294Z" fill="#E0E0E0"/>
<path d="M152.953 16.1647C154.382 16.1647 155.541 15.0059 155.541 13.5765C155.541 12.147 154.382 10.9882 152.953 10.9882C151.523 10.9882 150.365 12.147 150.365 13.5765C150.365 15.0059 151.523 16.1647 152.953 16.1647Z" fill="#E0E0E0"/>
</svg>
