<svg width="152" height="40" viewBox="0 0 152 40" fill="none" xmlns="http://www.w3.org/2000/svg">
<path d="M44.583 12.8686H48.2516V27.7257H44.583V12.8686ZM49.7144 22.1371C49.7144 18.4571 52.0002 16.2514 55.4287 16.2514C58.8573 16.2514 61.143 18.4571 61.143 22.1371C61.143 25.8171 58.9373 28.0457 55.4287 28.0457C51.9202 28.0457 49.7144 25.8971 49.7144 22.1371ZM57.5087 22.1371C57.5087 20.1143 56.7202 18.9257 55.463 18.9257C54.2059 18.9257 53.4287 20.0686 53.4287 22.1371C53.4287 24.2057 54.2059 25.3371 55.463 25.3371C56.7202 25.3371 57.5316 24.2057 57.5316 22.1486L57.5087 22.1371ZM62.6059 28.4914H66.1487C66.31 28.8728 66.5917 29.1911 66.9508 29.3974C67.3099 29.6038 67.7265 29.687 68.1373 29.6343C69.543 29.6343 70.2744 28.88 70.2744 27.76V25.7029H70.2859C69.9831 26.3434 69.4935 26.8773 68.8816 27.2343C68.2696 27.5913 67.5639 27.7546 66.8573 27.7029C64.1716 27.7029 62.3887 25.6571 62.3887 22.1371C62.3887 18.6171 64.0916 16.4229 66.9602 16.4229C67.6848 16.3841 68.4038 16.571 69.0178 16.9578C69.6318 17.3447 70.1108 17.9125 70.3887 18.5829H70.2859V16.5143H73.9202V27.6457C73.9202 30.3314 71.543 32.0114 68.0459 32.0114C64.8687 32 62.8344 30.5486 62.6287 28.5029L62.6059 28.4914ZM70.2859 22.1371C70.2859 20.3429 69.463 19.2114 68.1602 19.2114C66.8573 19.2114 66.0573 20.3543 66.0573 22.1371C66.0573 23.92 66.8459 24.9714 68.1602 24.9714C69.4744 24.9714 70.2859 24 70.2859 22.1371ZM75.3716 22.1371C75.3716 18.4571 77.6573 16.2514 81.0859 16.2514C84.5144 16.2514 86.8001 18.4571 86.8001 22.1371C86.8001 25.8171 84.583 28.0457 81.0859 28.0457C77.5887 28.0457 75.3944 25.8971 75.3944 22.1371H75.3716ZM83.1659 22.1371C83.1659 20.1143 82.3659 18.9257 81.1202 18.9257C79.8744 18.9257 79.0859 20.0686 79.0859 22.1371C79.0859 24.2057 79.863 25.3371 81.1202 25.3371C82.3773 25.3371 83.1887 24.2057 83.1887 22.1486L83.1659 22.1371ZM88.2859 13.8057C88.2699 13.432 88.3661 13.0621 88.5621 12.7435C88.7581 12.4249 89.045 12.1723 89.3858 12.0182C89.7266 11.8639 90.1056 11.8152 90.4743 11.8783C90.843 11.9413 91.1844 12.1131 91.4545 12.3718C91.7247 12.6305 91.9114 12.964 91.9904 13.3296C92.0694 13.6952 92.0373 14.0761 91.8981 14.4232C91.7589 14.7704 91.519 15.068 91.2093 15.2777C90.8996 15.4874 90.5342 15.5997 90.1601 15.6C89.9212 15.6061 89.6832 15.5646 89.4604 15.4781C89.2375 15.3914 89.034 15.2614 88.8617 15.0955C88.6895 14.9297 88.5519 14.7313 88.4571 14.5118C88.3621 14.2923 88.3117 14.0562 88.3087 13.8171L88.2859 13.8057ZM88.2859 16.5029H92.0001V27.7714H88.343L88.2859 16.5029ZM105.36 22.1371C105.36 25.8057 103.714 27.9314 100.914 27.9314C100.198 27.9757 99.4845 27.7987 98.8713 27.4248C98.2582 27.0507 97.7747 26.4976 97.4859 25.84H97.4173V31.3943H93.7487V16.5371H97.3944V18.5486H97.463C97.7419 17.8781 98.2207 17.3097 98.8342 16.9211C99.4478 16.5326 100.166 16.3426 100.892 16.3771C103.772 16.3543 105.429 18.4686 105.429 22.1486L105.36 22.1371ZM101.623 22.1371C101.623 20.3543 100.789 19.2 99.4973 19.2C98.2059 19.2 97.3944 20.3429 97.383 22.1371C97.3716 23.9314 98.2059 25.0629 99.4973 25.0629C100.789 25.0629 101.692 24 101.692 22.1486L101.623 22.1371ZM111.623 16.24C114.697 16.24 116.606 17.6914 116.629 20.0229H113.28C113.28 19.2114 112.606 18.7086 111.6 18.7086C110.594 18.7086 110.114 19.0971 110.114 19.68C110.114 20.2629 110.537 20.4457 111.383 20.6171L113.737 21.0971C116.023 21.5771 116.937 22.4914 116.937 24.1943C116.937 26.48 114.823 28.0343 111.68 28.0343C108.537 28.0343 106.492 26.5257 106.343 24.2286H109.897C110 25.0629 110.663 25.5543 111.737 25.5543C112.812 25.5543 113.314 25.2114 113.314 24.6057C113.314 24 112.972 23.8971 112.092 23.7143L109.966 23.2686C107.76 22.8 106.606 21.6457 106.606 19.92C106.674 17.68 108.594 16.2514 111.692 16.2514L111.623 16.24ZM129.223 27.76H125.669V25.6457H125.6C125.401 26.351 124.968 26.9673 124.372 27.3931C123.775 27.8191 123.052 28.029 122.32 27.9886C121.768 28.0065 121.217 27.9075 120.706 27.6979C120.196 27.4885 119.734 27.1731 119.353 26.7728C118.972 26.3723 118.68 25.8959 118.496 25.3747C118.312 24.8536 118.24 24.2993 118.286 23.7486V16.5143H121.954V22.96C121.954 24.2857 122.652 25.0057 123.794 25.0057C124.063 25.0037 124.327 24.9441 124.57 24.8312C124.814 24.7182 125.03 24.5543 125.204 24.3506C125.378 24.147 125.508 23.9082 125.582 23.6506C125.655 23.3929 125.673 23.1224 125.634 22.8571V16.5143H129.292L129.223 27.76ZM130.994 16.5029H134.56V18.6743H134.64C134.837 17.9786 135.26 17.368 135.84 16.9378C136.422 16.5078 137.129 16.2824 137.852 16.2971C138.577 16.2341 139.301 16.4439 139.879 16.8856C140.458 17.3273 140.852 17.9693 140.983 18.6857H141.143C141.372 17.9654 141.831 17.3407 142.452 16.9088C143.071 16.4768 143.817 16.2618 144.572 16.2971C145.073 16.2781 145.574 16.3651 146.039 16.5527C146.505 16.7401 146.926 17.0239 147.274 17.3854C147.623 17.7467 147.89 18.1777 148.061 18.6499C148.232 19.1222 148.301 19.625 148.263 20.1257V27.7714H144.572V21.0629C144.572 19.92 144.034 19.28 142.994 19.28C142.764 19.2762 142.535 19.3224 142.324 19.4152C142.112 19.5081 141.925 19.6456 141.772 19.8182C141.618 19.9909 141.504 20.1944 141.437 20.4152C141.37 20.636 141.352 20.8686 141.383 21.0971V27.7714H137.886V21.0286C137.886 19.8857 137.326 19.28 136.32 19.28C136.087 19.2782 135.856 19.3262 135.644 19.4208C135.43 19.5155 135.24 19.6546 135.085 19.8289C134.93 20.0032 134.815 20.2086 134.746 20.4312C134.677 20.6539 134.656 20.8888 134.686 21.12V27.7714H131.017L130.994 16.5029Z" fill="#E0E0E0"/>
<path d="M37.3258 13.84C37.3259 11.5654 36.6391 9.34374 35.3552 7.46609C34.0713 5.58844 32.2501 4.14233 30.1305 3.31719C28.0108 2.49203 25.6913 2.32632 23.4759 2.84174C21.2603 3.35715 19.2522 4.52968 17.7144 6.20572H3.45154V36.3086H33.5658V22.24C34.7477 21.1829 35.6936 19.8884 36.3415 18.4409C36.9893 16.9935 37.3248 15.4258 37.3258 13.84ZM31.5315 13.84C31.5338 14.93 31.2127 15.9961 30.6088 16.9036C30.0048 17.8109 29.1453 18.5188 28.1389 18.9374C27.1325 19.3561 26.0247 19.4669 24.9553 19.2556C23.886 19.0444 22.9034 18.5206 22.1319 17.7506C21.3603 16.9807 20.8346 15.9992 20.6211 14.9303C20.4076 13.8615 20.5161 12.7533 20.9327 11.7461C21.3492 10.7388 22.0553 9.87783 22.9613 9.27203C23.8675 8.66624 24.933 8.34288 26.0229 8.34287C27.4819 8.34287 28.8813 8.92167 29.914 9.95225C30.9468 10.9828 31.5285 12.381 31.5315 13.84ZM27.7715 30.5143H9.24582V12H14.8915C14.7825 12.6074 14.7251 13.223 14.7201 13.84C14.7232 16.8368 15.9149 19.71 18.034 21.829C20.153 23.948 23.0261 25.1399 26.0229 25.1429C26.6089 25.1398 27.1936 25.0901 27.7715 24.9943V30.5143Z" fill="#E0E0E0"/>
</svg>
