<svg width="156" height="40" viewBox="0 0 156 40" fill="none" xmlns="http://www.w3.org/2000/svg">
<path d="M46.1875 12.5875H49.9375V27.75H46.1875V12.5875ZM51.425 22.025C51.425 18.275 53.725 16.0375 57.275 16.0375C60.825 16.0375 63.125 18.275 63.125 22.025C63.125 25.775 60.875 28.025 57.275 28.025C53.675 28.025 51.425 25.8375 51.425 22.025ZM59.3625 22.025C59.3625 19.9625 58.55 18.75 57.275 18.75C56 18.75 55.2 20 55.2 22.025C55.2 24.05 55.9875 25.275 57.275 25.275C58.5625 25.275 59.3625 24.125 59.3625 22.0375V22.025ZM64.5375 28.4875H68.1375C68.3089 28.8681 68.5985 29.1832 68.9634 29.386C69.3282 29.5886 69.7489 29.6681 70.1625 29.6125C71.5875 29.6125 72.3375 28.8375 72.3375 27.7125V25.6125H72.2625C71.9638 26.2561 71.4789 26.7954 70.8706 27.1609C70.2624 27.5262 69.5585 27.701 68.85 27.6625C66.1125 27.6625 64.3 25.575 64.3 21.9875C64.3 18.4 66.025 16.1375 68.9 16.1375C69.6308 16.1089 70.3528 16.3042 70.9694 16.6974C71.586 17.0906 72.0678 17.6629 72.35 18.3375V16.25H76.1V27.625C76.1 30.3625 73.6875 32.0625 70.125 32.0625C66.8125 32.0625 64.75 30.575 64.5375 28.5V28.4875ZM72.35 22.0125C72.35 20.1875 71.5125 19.0375 70.1875 19.0375C68.8625 19.0375 68.05 20.175 68.05 22.0125C68.05 23.85 68.85 24.8875 70.1875 24.8875C71.525 24.8875 72.35 23.875 72.35 22.025V22.0125ZM77.5125 22.0125C77.5125 18.2625 79.8125 16.025 83.3625 16.025C86.9125 16.025 89.225 18.2625 89.225 22.0125C89.225 25.7625 86.975 28.0125 83.3625 28.0125C79.75 28.0125 77.5125 25.8375 77.5125 22.025V22.0125ZM85.45 22.0125C85.45 19.95 84.6375 18.7375 83.3625 18.7375C82.0875 18.7375 81.35 20 81.35 22.0375C81.35 24.075 82.1375 25.2875 83.4125 25.2875C84.6875 25.2875 85.45 24.125 85.45 22.0375V22.0125ZM90.65 13.525C90.6401 13.1464 90.743 12.7734 90.9454 12.4532C91.1479 12.1331 91.4408 11.8803 91.787 11.7269C92.1333 11.5734 92.5173 11.5262 92.8904 11.5913C93.2635 11.6564 93.6089 11.8308 93.8828 12.0923C94.1567 12.3539 94.3467 12.691 94.4289 13.0607C94.511 13.4305 94.4815 13.8162 94.344 14.1692C94.2066 14.5221 93.9675 14.8264 93.657 15.0432C93.3466 15.2601 92.9786 15.38 92.6 15.3875C92.349 15.4047 92.0971 15.3699 91.8603 15.2851C91.6233 15.2004 91.4065 15.0676 91.2234 14.895C91.0402 14.7225 90.8948 14.5139 90.7961 14.2824C90.6974 14.051 90.6476 13.8016 90.65 13.55V13.525ZM90.65 16.275H94.4V27.75H90.65V16.275ZM108.013 22.0125C108.013 25.7625 106.35 27.9 103.5 27.9C102.769 27.9469 102.042 27.7682 101.416 27.3882C100.79 27.0081 100.295 26.445 100 25.775H99.925V31.425H96.175V16.25H99.925V18.3H100C100.282 17.6189 100.767 17.0411 101.388 16.6452C102.01 16.2494 102.739 16.0546 103.475 16.0875C106.35 16.1375 108.063 18.2875 108.063 22.0375L108.013 22.0125ZM104.263 22.0125C104.263 20.1875 103.425 19.025 102.113 19.025C100.8 19.025 99.9625 20.2 99.95 22.0125C99.9375 23.825 100.8 24.9875 102.113 24.9875C103.425 24.9875 104.263 23.85 104.263 22.0375V22.0125ZM114.45 16.0125C117.563 16.0125 119.45 17.4875 119.538 19.85H116.125C116.125 19.0375 115.45 18.525 114.412 18.525C113.375 18.525 112.912 18.925 112.912 19.5125C112.912 20.1 113.325 20.2875 114.162 20.4625L116.562 20.95C118.85 21.4375 119.825 22.3625 119.825 24.1C119.825 26.475 117.662 28 114.475 28C111.287 28 109.2 26.475 109.038 24.1375H112.65C112.763 24.9875 113.438 25.4875 114.538 25.4875C115.638 25.4875 116.138 25.125 116.138 24.525C116.138 23.925 115.788 23.8 114.888 23.6125L112.725 23.15C110.488 22.6875 109.313 21.5 109.313 19.75C109.338 17.5 111.35 16.0375 114.45 16.0375V16.0125ZM132.337 27.725H128.725V25.5875H128.65C128.451 26.3051 128.014 26.9332 127.409 27.3676C126.804 27.8019 126.069 28.0162 125.325 27.975C124.755 28.0074 124.185 27.9171 123.653 27.7102C123.121 27.5034 122.64 27.1849 122.242 26.776C121.844 26.3672 121.538 25.8776 121.345 25.3405C121.153 24.8034 121.078 24.2311 121.125 23.6625V16.25H124.875V22.8C124.875 24.1625 125.575 24.8875 126.738 24.8875C127.01 24.888 127.28 24.8304 127.529 24.7182C127.776 24.6061 127.999 24.4421 128.179 24.2374C128.358 24.0325 128.493 23.7916 128.571 23.5309C128.65 23.27 128.674 22.9952 128.638 22.725V16.25H132.388L132.337 27.725ZM134.15 16.25H137.775V18.4625H137.85C138.049 17.7544 138.478 17.1321 139.068 16.6934C139.658 16.2546 140.378 16.0239 141.113 16.0375C141.861 15.9776 142.604 16.2015 143.195 16.6647C143.785 17.128 144.18 17.7965 144.3 18.5375H144.375C144.601 17.7886 145.071 17.1366 145.71 16.684C146.347 16.2314 147.119 16.0039 147.9 16.0375C148.41 16.0204 148.917 16.1107 149.39 16.3027C149.864 16.4946 150.29 16.784 150.644 17.1517C150.998 17.5196 151.27 17.9577 151.444 18.4376C151.616 18.9175 151.687 19.4286 151.65 19.9375V27.75H147.9V20.9375C147.9 19.6875 147.338 19.1125 146.288 19.1125C146.054 19.1105 145.821 19.1587 145.607 19.254C145.394 19.3492 145.202 19.4892 145.048 19.6646C144.892 19.84 144.776 20.0465 144.707 20.2704C144.639 20.4944 144.62 20.7304 144.65 20.9625V27.75H141.087V20.8875C141.087 19.7375 140.525 19.1125 139.5 19.1125C139.264 19.1126 139.029 19.1629 138.814 19.26C138.597 19.3572 138.404 19.4991 138.247 19.6762C138.09 19.8534 137.973 20.0619 137.901 20.288C137.831 20.514 137.809 20.7524 137.838 20.9875V27.75H134.088L134.15 16.25Z" fill="#E0E0E0"/>
<path d="M35.7 13.275C35.0638 11.8204 34.222 10.4649 33.2 9.24999C31.6893 7.40041 29.8041 5.89172 27.6683 4.82324C25.5326 3.75476 23.1947 3.1507 20.8087 3.05081C18.4227 2.95093 16.0426 3.35747 13.825 4.24372C11.6074 5.12996 9.60268 6.4758 7.94272 8.19265C6.28275 9.90949 5.00518 11.9584 4.19412 14.2046C3.38306 16.4507 3.05687 18.8432 3.23705 21.2245C3.41723 23.6059 4.09967 25.922 5.23947 28.0205C6.37927 30.1191 7.95058 31.9525 9.84999 33.4C11.0687 34.3474 12.4154 35.1175 13.85 35.6875C15.8612 36.5117 18.0138 36.9362 20.1875 36.9375C24.6742 36.9276 28.974 35.1391 32.1443 31.9641C35.3146 28.7891 37.0967 24.4867 37.1 20C37.1032 17.6856 36.6266 15.3957 35.7 13.275ZM20.175 6.48747C22.127 6.48727 24.0553 6.9139 25.825 7.73747C25.3935 7.92394 24.9397 8.05417 24.475 8.12499C22.9457 8.34635 21.5291 9.05632 20.4365 10.1489C19.3438 11.2416 18.6338 12.6582 18.4125 14.1875C18.3153 15.0451 17.9252 15.843 17.3081 16.4465C16.691 17.05 15.8846 17.422 15.025 17.5C13.4957 17.7214 12.0791 18.4314 10.9864 19.524C9.89383 20.6166 9.18385 22.0332 8.96248 23.5625C8.88753 24.378 8.5396 25.1444 7.97499 25.7375C7.0008 23.6791 6.56317 21.4076 6.70282 19.1346C6.84247 16.8616 7.55486 14.6609 8.7737 12.7371C9.99252 10.8135 11.6782 9.22937 13.6738 8.13229C15.6695 7.0352 17.9102 6.46079 20.1875 6.46247L20.175 6.48747ZM9.83748 28.75C9.98748 28.6125 10.1375 28.4875 10.2875 28.3375C11.3995 27.2594 12.1134 25.8361 12.3125 24.3C12.3932 23.4365 12.7787 22.63 13.4 22.025C13.9978 21.4027 14.8025 21.0204 15.6625 20.95C17.1917 20.7286 18.6083 20.0186 19.701 18.926C20.7936 17.8334 21.5036 16.4167 21.725 14.8875C21.7791 13.9844 22.1666 13.1335 22.8125 12.5C23.4251 11.8898 24.2373 11.5214 25.1 11.4625C26.5048 11.2692 27.8151 10.6446 28.85 9.67499C30.0283 10.6526 31.0266 11.8286 31.8 13.15C31.7525 13.2141 31.698 13.2729 31.6375 13.325C31.0408 13.9527 30.2372 14.3435 29.375 14.425C27.8441 14.6425 26.4253 15.3512 25.332 16.4445C24.2387 17.5379 23.53 18.9566 23.3125 20.4875C23.2243 21.348 22.8415 22.1516 22.2287 22.7621C21.6158 23.3727 20.8108 23.7526 19.95 23.8375C18.4162 24.0571 16.9943 24.7657 15.8953 25.8579C14.7965 26.9501 14.0791 28.3676 13.85 29.9C13.7827 30.5109 13.5728 31.0975 13.2375 31.6125C11.955 30.851 10.8063 29.884 9.83748 28.75ZM20.175 33.575C18.9066 33.5764 17.6442 33.3996 16.425 33.05C16.8421 32.2725 17.1132 31.4251 17.225 30.55C17.3126 29.6914 17.6937 28.8892 18.304 28.279C18.9142 27.6687 19.7163 27.2876 20.575 27.2C22.1065 26.9811 23.526 26.2722 24.6211 25.1794C25.7161 24.0866 26.428 22.6685 26.65 21.1375C26.7376 20.2789 27.1187 19.4767 27.729 18.8665C28.3392 18.2562 29.1413 17.8751 30 17.7875C31.1525 17.6376 32.251 17.2085 33.2 16.5375C33.727 18.5349 33.7893 20.6264 33.3825 22.6516C32.9756 24.6769 32.1101 26.5821 30.8526 28.221C29.5951 29.8597 27.979 31.1889 26.128 32.1061C24.2771 33.0234 22.2407 33.5045 20.175 33.5125V33.575Z" fill="#E0E0E0"/>
</svg>
