<svg width="40" height="40" viewBox="0 0 40 40" fill="none" xmlns="http://www.w3.org/2000/svg">
<path d="M40 13.3789C40.0001 10.6839 39.1891 8.05165 37.673 5.82698C36.1569 3.60232 34.0065 1.88894 31.5035 0.911303C29.0005 -0.0663525 26.2615 -0.262693 23.6455 0.347981C21.0293 0.958655 18.658 2.34788 16.8421 4.33368H0V40H35.5601V23.3313C36.9557 22.0788 38.0726 20.5451 38.8377 18.8301C39.6027 17.1152 39.9988 15.2578 40 13.3789ZM33.1579 13.3789C33.1606 14.6703 32.7814 15.9335 32.0683 17.0086C31.3551 18.0836 30.3402 18.9223 29.1518 19.4183C27.9634 19.9145 26.6552 20.0457 25.3924 19.7953C24.1298 19.5451 22.9695 18.9245 22.0584 18.0123C21.1474 17.1 20.5266 15.9372 20.2745 14.6707C20.0224 13.4044 20.1505 12.0913 20.6424 10.898C21.1343 9.70457 21.968 8.68445 23.0379 7.96669C24.108 7.24894 25.3661 6.86582 26.6532 6.8658C28.376 6.8658 30.0285 7.55157 31.2479 8.77262C32.4675 9.99367 33.1544 11.6503 33.1579 13.3789ZM28.7179 33.1348H6.84211V11.1988H13.5088C13.38 11.9185 13.3123 12.6478 13.3063 13.3789C13.31 16.9296 14.7173 20.3337 17.2196 22.8444C19.7217 25.355 23.1144 26.7672 26.6532 26.7707C27.3451 26.767 28.0355 26.7081 28.7179 26.5947V33.1348Z" fill="white"/>
</svg>
