<svg width="188" height="40" viewBox="0 0 188 40" fill="none" xmlns="http://www.w3.org/2000/svg">
<path d="M30.3587 17.828C29.8533 18.3364 29.4664 18.95 29.2253 19.6249C28.9843 20.3 28.8951 21.0199 28.964 21.7333L28.94 21.7093C29.0109 22.5492 28.8976 23.3943 28.6081 24.1859C28.3187 24.9773 27.86 25.6961 27.2641 26.2921C26.6681 26.888 25.9493 27.3468 25.1577 27.6361C24.3663 27.9256 23.5211 28.0389 22.6813 27.968L22.7053 27.992C21.7008 27.8985 20.6919 28.1171 19.816 28.618C18.9403 29.1189 18.2403 29.8777 17.8116 30.7911C17.3829 31.7044 17.2463 32.7276 17.4204 33.7215C17.5947 34.7152 18.0711 35.6311 18.7848 36.3441C19.4985 37.0572 20.4148 37.5328 21.4087 37.706C22.4027 37.8793 23.4257 37.7417 24.3387 37.3123C25.2516 36.8827 26.0097 36.1821 26.5099 35.3059C27.01 34.4296 27.2277 33.4205 27.1333 32.416L27.1587 32.44C27.0877 31.6003 27.2009 30.7551 27.4904 29.9635C27.7799 29.172 28.2387 28.4532 28.8345 27.8572C29.4305 27.2613 30.1493 26.8025 30.9408 26.5132C31.7324 26.2237 32.5775 26.1104 33.4173 26.1813L33.392 26.1573C34.2125 26.2311 35.0385 26.0965 35.7933 25.7661C36.548 25.4357 37.2072 24.9201 37.7096 24.2672C38.212 23.6143 38.5416 22.8449 38.6675 22.0308C38.7935 21.2165 38.7119 20.3837 38.4303 19.6093C38.1487 18.8351 37.6761 18.1444 37.0565 17.6013C36.4369 17.0583 35.6903 16.6804 34.8857 16.5028C34.0812 16.3252 33.2448 16.3535 32.4541 16.5851C31.6635 16.8168 30.9441 17.2443 30.3627 17.828H30.3587Z" fill="#E0E0E0"/>
<path d="M20.5227 24.848L20.4973 24.824C21.2111 24.8959 21.9319 24.8083 22.6077 24.5675C23.2835 24.3267 23.8973 23.9388 24.4048 23.4317C24.9121 22.9247 25.3007 22.3111 25.5419 21.6355C25.7832 20.9599 25.8713 20.2392 25.8 19.5253L25.8253 19.5493C25.7544 18.7095 25.8677 17.8644 26.1571 17.0728C26.4465 16.2813 26.9053 15.5625 27.5012 14.9665C28.0972 14.3707 28.816 13.9119 29.6075 13.6225C30.3991 13.333 31.2441 13.2198 32.084 13.2907L32.0587 13.2667C33.0633 13.3611 34.0725 13.1432 34.9488 12.6428C35.8252 12.1425 36.5257 11.384 36.9551 10.4708C37.3844 9.55767 37.5216 8.53429 37.348 7.54028C37.1744 6.54627 36.6984 5.63003 35.9848 4.91651C35.2713 4.203 34.3551 3.72695 33.3611 3.55332C32.3671 3.37968 31.3437 3.5169 30.4305 3.94626C29.5173 4.3756 28.7589 5.0762 28.2585 5.95248C27.7581 6.82875 27.5403 7.83804 27.6347 8.84268L27.6107 8.81735C27.6817 9.6572 27.5687 10.5025 27.2793 11.2941C26.99 12.0857 26.5312 12.8046 25.9353 13.4007C25.3393 13.9965 24.6204 14.4553 23.8288 14.7447C23.0371 15.034 22.1919 15.1471 21.352 15.076L21.376 15.1013C20.6623 15.0295 19.9413 15.1171 19.2656 15.3579C18.5899 15.5985 17.976 15.9865 17.4685 16.4936C16.9611 17.0007 16.5727 17.6143 16.3313 18.2899C16.0901 18.9655 16.002 19.6861 16.0733 20.4L16.0493 20.376C16.12 21.2157 16.0065 22.0608 15.7171 22.8523C15.4275 23.6436 14.9688 24.3624 14.3729 24.9583C13.777 25.5541 13.0583 26.0128 12.2669 26.3024C11.4755 26.5919 10.6304 26.7053 9.79068 26.6347L9.81468 26.6587C8.81004 26.5643 7.80074 26.7821 6.92446 27.2825C6.0482 27.7829 5.3476 28.5413 4.91825 29.4545C4.48889 30.3677 4.35166 31.3911 4.5253 32.3851C4.69894 33.3791 5.175 34.2953 5.8885 35.0088C6.60202 35.7224 7.51826 36.1984 8.51228 36.372C9.50629 36.5456 10.5297 36.4084 11.4428 35.9791C12.356 35.5497 13.1145 34.8492 13.6148 33.9729C14.1152 33.0965 14.3331 32.0873 14.2387 31.0827L14.264 31.1067C14.1931 30.2668 14.3064 29.4217 14.5959 28.6301C14.8852 27.8387 15.344 27.1199 15.9399 26.5239C16.5359 25.928 17.2547 25.4692 18.0461 25.1799C18.8377 24.8904 19.6828 24.7771 20.5227 24.848Z" fill="#E0E0E0"/>
<path d="M11.5867 22.172C12.092 21.6637 12.4789 21.0501 12.7198 20.3751C12.9606 19.7 13.0495 18.98 12.98 18.2667L13.0053 18.2907C12.9344 17.4507 13.0477 16.6052 13.3373 15.8135C13.6269 15.0217 14.0859 14.3028 14.6821 13.7068C15.2784 13.1108 15.9975 12.6522 16.7893 12.3629C17.5812 12.0736 18.4267 11.9607 19.2667 12.032L19.2413 12.008C20.2456 12.1021 21.2545 11.8841 22.1304 11.3838C23.0063 10.8835 23.7064 10.1252 24.1356 9.2123C24.5647 8.29942 24.7017 7.27642 24.5281 6.28278C24.3545 5.28914 23.8785 4.37324 23.1653 3.65999C22.4521 2.94674 21.5361 2.47084 20.5425 2.29722C19.5489 2.12358 18.5259 2.26067 17.6131 2.68976C16.7001 3.11886 15.9419 3.81908 15.4416 4.69495C14.9412 5.57082 14.7232 6.5797 14.8173 7.58399L14.7933 7.55999C14.8643 8.39979 14.7509 9.24495 14.4615 10.0365C14.172 10.828 13.7134 11.5468 13.1174 12.1428C12.5215 12.7387 11.8027 13.1974 11.0111 13.4868C10.2196 13.7763 9.37447 13.8896 8.53467 13.8187L8.55867 13.8427C7.7381 13.7691 6.91222 13.9039 6.15758 14.2344C5.40294 14.5649 4.74394 15.0807 4.24166 15.7337C3.73938 16.3867 3.41007 17.156 3.28423 17.9701C3.15841 18.7844 3.24013 19.6172 3.52182 20.3913C3.80351 21.1656 4.27609 21.8561 4.89573 22.3991C5.51537 22.9421 6.26203 23.3199 7.06654 23.4975C7.87103 23.6749 8.70734 23.6465 9.49797 23.4149C10.2886 23.1832 11.0079 22.7557 11.5893 22.172H11.5867Z" fill="#E0E0E0"/>
<path d="M52.8894 8.87332H56.8494V28.144H52.8894V8.87332Z" fill="#E0E0E0"/>
<path d="M59.092 21.5453C59.0865 20.1605 59.4921 18.8051 60.2575 17.6509C61.0228 16.4968 62.1135 15.5957 63.3913 15.062C64.6692 14.5281 66.0767 14.3856 67.4356 14.6524C68.7945 14.9192 70.0437 15.5832 71.0249 16.5605C72.0061 17.5377 72.6752 18.7843 72.9475 20.1421C73.2197 21.5 73.0828 22.9081 72.5541 24.1881C72.0255 25.468 71.1288 26.5624 69.9777 27.3323C68.8265 28.1023 67.4729 28.5133 66.088 28.5133C65.1688 28.5239 64.2567 28.3509 63.4049 28.0048C62.5532 27.6587 61.7791 27.1463 61.1277 26.4976C60.4763 25.8488 59.9608 25.0767 59.6113 24.2264C59.2617 23.3761 59.0852 22.4647 59.092 21.5453ZM69.124 21.5453C69.1075 20.9484 68.9153 20.3696 68.5717 19.8812C68.228 19.3929 67.748 19.0167 67.1917 18.7997C66.6353 18.5827 66.0274 18.5344 65.4438 18.6611C64.8602 18.7877 64.3269 19.0835 63.9105 19.5116C63.4943 19.9396 63.2132 20.4809 63.1029 21.0679C62.9925 21.6547 63.0575 22.2611 63.2899 22.8112C63.5223 23.3613 63.9116 23.8307 64.4092 24.1607C64.9069 24.4907 65.4909 24.6667 66.088 24.6667C66.4969 24.6776 66.9037 24.6036 67.2828 24.4495C67.6617 24.2953 68.0047 24.0644 68.2899 23.7712C68.5751 23.4779 68.7965 23.1287 68.94 22.7456C69.0836 22.3625 69.1463 21.9539 69.124 21.5453Z" fill="#E0E0E0"/>
<path d="M88.8666 14.9453V27.4787C88.8666 31.9133 85.408 33.788 81.8973 33.788C80.6613 33.8805 79.4236 33.6308 78.32 33.0664C77.2165 32.5019 76.2897 31.6444 75.6413 30.588L79.02 28.6347C79.2925 29.1853 79.7268 29.6396 80.2645 29.9368C80.8024 30.2339 81.4181 30.3597 82.0293 30.2973C82.42 30.3515 82.8178 30.3171 83.1934 30.1967C83.5689 30.0763 83.9126 29.8729 84.199 29.6019C84.4854 29.3307 84.7072 28.9987 84.848 28.6301C84.9886 28.2617 85.0446 27.8664 85.012 27.4733V26.2667C84.5482 26.834 83.9581 27.2848 83.2886 27.5828C82.6192 27.8808 81.8893 28.0177 81.1573 27.9827C79.4157 27.9277 77.7638 27.1973 76.5513 25.9459C75.3388 24.6945 74.6608 23.0204 74.6608 21.278C74.6608 19.5356 75.3388 17.8615 76.5513 16.6101C77.7638 15.3587 79.4157 14.6283 81.1573 14.5733C81.8893 14.5383 82.6192 14.6752 83.2886 14.9732C83.9581 15.2712 84.5482 15.722 85.012 16.2893V14.9427L88.8666 14.9453ZM85.0133 21.28C85.04 20.6419 84.8749 20.0103 84.5396 19.4667C84.2042 18.9229 83.7138 18.4921 83.1316 18.2296C82.5493 17.9669 81.9018 17.8847 81.2724 17.9932C80.6429 18.1017 80.0604 18.3961 79.5996 18.8387C79.1389 19.2811 78.8212 19.8512 78.6872 20.4757C78.5533 21.1003 78.6093 21.7507 78.8482 22.3431C79.087 22.9355 79.4977 23.4429 80.0273 23.8C80.5569 24.1571 81.1813 24.3475 81.82 24.3467C82.2361 24.3757 82.6536 24.3173 83.0457 24.1752C83.4378 24.0331 83.7958 23.8103 84.0966 23.5215C84.3974 23.2325 84.6345 22.8839 84.7924 22.4977C84.9502 22.1117 85.0256 21.6969 85.0133 21.28Z" fill="#E0E0E0"/>
<path d="M91.1093 21.5453C91.1039 20.1605 91.5093 18.8051 92.2748 17.6509C93.0401 16.4968 94.1308 15.5957 95.4086 15.062C96.6865 14.5281 98.094 14.3856 99.4529 14.6524C100.812 14.9192 102.061 15.5832 103.042 16.5605C104.023 17.5377 104.693 18.7843 104.965 20.1421C105.237 21.5 105.1 22.9081 104.571 24.1881C104.043 25.468 103.146 26.5624 101.995 27.3323C100.844 28.1023 99.4902 28.5133 98.1053 28.5133C97.1861 28.5239 96.2738 28.3509 95.4222 28.0048C94.5705 27.6587 93.7964 27.1463 93.145 26.4976C92.4936 25.8488 91.9781 25.0767 91.6286 24.2264C91.279 23.3761 91.1025 22.4647 91.1093 21.5453ZM101.141 21.5453C101.125 20.9484 100.933 20.3696 100.589 19.8812C100.245 19.3929 99.7653 19.0167 99.2091 18.7997C98.6527 18.5827 98.0447 18.5344 97.4612 18.6611C96.8776 18.7877 96.3443 19.0835 95.9279 19.5116C95.5116 19.9396 95.2305 20.4809 95.1201 21.0679C95.0097 21.6547 95.0748 22.2611 95.3072 22.8112C95.5396 23.3613 95.9289 23.8307 96.4265 24.1607C96.9243 24.4907 97.5081 24.6667 98.1053 24.6667C98.5142 24.6776 98.9211 24.6036 99.3 24.4495C99.6791 24.2953 100.022 24.0644 100.307 23.7712C100.592 23.4779 100.814 23.1287 100.957 22.7456C101.101 22.3625 101.164 21.9539 101.141 21.5453Z" fill="#E0E0E0"/>
<path d="M106.948 11.408C106.948 10.9381 107.087 10.4787 107.348 10.088C107.609 9.69723 107.981 9.39268 108.415 9.21285C108.849 9.03301 109.327 8.98596 109.788 9.07764C110.248 9.16932 110.672 9.39561 111.004 9.72791C111.336 10.0602 111.563 10.4835 111.654 10.9445C111.746 11.4053 111.699 11.8831 111.519 12.3172C111.339 12.7514 111.035 13.1225 110.644 13.3836C110.253 13.6447 109.794 13.784 109.324 13.784C108.696 13.7777 108.095 13.5255 107.651 13.0812C107.207 12.6369 106.954 12.0362 106.948 11.408ZM107.348 14.9453H111.309V28.1453H107.343L107.348 14.9453Z" fill="#E0E0E0"/>
<path d="M128.408 21.5453C128.454 22.4177 128.327 23.2905 128.034 24.1136C127.741 24.9367 127.289 25.6937 126.702 26.3413C126.116 26.9888 125.407 27.5141 124.617 27.8869C123.827 28.2596 122.971 28.4725 122.099 28.5133C121.365 28.5533 120.631 28.4296 119.951 28.1511C119.271 27.8724 118.662 27.446 118.167 26.9027V33.424H114.207V14.9453H118.167V16.1853C118.662 15.6424 119.271 15.2163 119.951 14.938C120.632 14.6596 121.365 14.536 122.099 14.576C122.971 14.6167 123.828 14.8295 124.618 15.2023C125.408 15.5751 126.117 16.1004 126.703 16.7481C127.29 17.3959 127.742 18.1532 128.035 18.9765C128.327 19.7997 128.454 20.6728 128.408 21.5453ZM124.448 21.5453C124.433 20.9276 124.235 20.3281 123.881 19.8219C123.526 19.3157 123.03 18.9253 122.455 18.6997C121.88 18.474 121.251 18.4229 120.647 18.5531C120.042 18.6831 119.49 18.9884 119.059 19.4308C118.627 19.8733 118.336 20.4331 118.221 21.0404C118.106 21.6476 118.173 22.2751 118.413 22.8445C118.653 23.414 119.056 23.8999 119.571 24.2416C120.086 24.5832 120.69 24.7655 121.308 24.7653C121.732 24.7843 122.156 24.7132 122.551 24.5569C122.945 24.4008 123.303 24.1628 123.599 23.8588C123.896 23.5547 124.125 23.1915 124.271 22.7928C124.417 22.3941 124.478 21.9689 124.448 21.5453Z" fill="#E0E0E0"/>
<path d="M140.628 24.184C140.628 27.22 137.989 28.5133 135.139 28.5133C133.987 28.6176 132.83 28.3741 131.818 27.814C130.807 27.254 129.986 26.4033 129.463 25.372L132.893 23.4187C133.032 23.8953 133.33 24.3101 133.738 24.5935C134.145 24.8769 134.639 25.012 135.133 24.976C136.083 24.976 136.559 24.6853 136.559 24.1587C136.559 22.7053 130.064 23.472 130.064 18.9053C130.064 16.0267 132.493 14.576 135.239 14.576C136.271 14.5433 137.292 14.7881 138.197 15.2848C139.103 15.7816 139.859 16.512 140.385 17.4L137.007 19.2213C136.859 18.8756 136.612 18.5811 136.297 18.3745C135.983 18.168 135.615 18.0587 135.239 18.06C134.552 18.06 134.129 18.3267 134.129 18.7987C134.135 20.304 140.628 19.3 140.628 24.184Z" fill="#E0E0E0"/>
<path d="M155.093 14.9453V28.1453H151.133V26.904C150.676 27.4517 150.096 27.8833 149.44 28.1633C148.784 28.4433 148.072 28.5637 147.36 28.5147C144.693 28.5147 142.427 26.6147 142.427 23.048V14.9453H146.387V22.468C146.353 22.7824 146.389 23.1003 146.492 23.3993C146.593 23.6985 146.76 23.9719 146.979 24.2003C147.197 24.4287 147.463 24.6067 147.757 24.722C148.051 24.8373 148.367 24.8872 148.683 24.868C150.135 24.868 151.137 24.024 151.137 22.1493V14.9493L155.093 14.9453Z" fill="#E0E0E0"/>
<path d="M177.8 20.04V28.144H173.84V20.3827C173.84 19.0627 173.207 18.2187 171.94 18.2187C170.62 18.2187 169.88 19.1427 169.88 20.7V28.144H165.921V20.3827C165.921 19.0627 165.288 18.2187 164.02 18.2187C162.7 18.2187 161.961 19.1427 161.961 20.7V28.144H158.001V14.944H161.961V16.1573C162.372 15.6191 162.911 15.1921 163.528 14.9157C164.147 14.6392 164.824 14.522 165.499 14.5747C166.176 14.5415 166.851 14.6845 167.457 14.9897C168.063 15.2948 168.579 15.7519 168.956 16.316C169.395 15.7257 169.976 15.2564 170.645 14.9519C171.315 14.6473 172.051 14.5176 172.784 14.5747C175.815 14.576 177.8 16.74 177.8 20.04Z" fill="#E0E0E0"/>
<path d="M181.149 14.864C182.772 14.864 184.088 13.5483 184.088 11.9253C184.088 10.3023 182.772 8.98666 181.149 8.98666C179.527 8.98666 178.211 10.3023 178.211 11.9253C178.211 13.5483 179.527 14.864 181.149 14.864Z" fill="#E0E0E0"/>
</svg>
