<svg width="141" height="40" viewBox="0 0 141 40" fill="none" xmlns="http://www.w3.org/2000/svg">
<path d="M46.9628 25.4546V9.89819H44.4119V25.4546H46.9628Z" fill="#E0E0E0"/>
<path d="M48.524 20.2691C48.524 23.4473 50.6568 25.7055 53.8977 25.7055C57.1386 25.7055 59.2713 23.4473 59.2713 20.2691C59.2713 17.0909 57.1386 14.8327 53.8977 14.8327C50.6568 14.8327 48.524 17.0909 48.524 20.2691ZM51.0959 20.2691C51.0959 18.4082 52.2041 17.1118 53.8977 17.1118C55.5913 17.1118 56.6995 18.4082 56.6995 20.2691C56.6995 22.1091 55.5913 23.4264 53.8977 23.4264C52.2041 23.4264 51.0959 22.1091 51.0959 20.2691Z" fill="#E0E0E0"/>
<path d="M60.1293 20.06C60.1293 23.0709 62.0738 25.2455 64.9802 25.2455C66.4856 25.2455 67.782 24.6391 68.4302 23.6355V25.3918C68.4302 27.0855 67.3638 28.2146 65.5865 28.2146C63.9975 28.2146 62.9102 27.4409 62.7638 26.0818H60.192C60.5265 28.7791 62.5965 30.5355 65.4402 30.5355C68.7856 30.5355 70.9184 28.34 70.9184 24.9318V15.1255H68.6602L68.5138 16.5264C67.8865 15.4391 66.5902 14.7909 65.0638 14.7909C62.1156 14.7909 60.1293 17.0282 60.1293 20.06ZM62.722 19.9973C62.722 18.2827 63.8093 17.0282 65.4193 17.0282C67.1756 17.0282 68.3465 18.3037 68.3465 19.9973C68.3465 21.7118 67.1756 23.0291 65.4193 23.0291C63.8302 23.0291 62.722 21.7327 62.722 19.9973Z" fill="#E0E0E0"/>
<path d="M72.1808 20.2691C72.1808 23.4473 74.3135 25.7055 77.5544 25.7055C80.7953 25.7055 82.9281 23.4473 82.9281 20.2691C82.9281 17.0909 80.7953 14.8327 77.5544 14.8327C74.3135 14.8327 72.1808 17.0909 72.1808 20.2691ZM74.7526 20.2691C74.7526 18.4082 75.8608 17.1118 77.5544 17.1118C79.2481 17.1118 80.3562 18.4082 80.3562 20.2691C80.3562 22.1091 79.2481 23.4264 77.5544 23.4264C75.8608 23.4264 74.7526 22.1091 74.7526 20.2691Z" fill="#E0E0E0"/>
<path d="M85.6887 13.0136C86.525 13.0136 87.215 12.3445 87.215 11.4873C87.215 10.6509 86.525 9.98181 85.6887 9.98181C84.8314 9.98181 84.1832 10.6509 84.1832 11.4873C84.1832 12.3445 84.8314 13.0136 85.6887 13.0136ZM84.4132 25.4545H86.9641V15.1254H84.4132V25.4545Z" fill="#E0E0E0"/>
<path d="M89.199 30.2427H91.6873V24.0327C92.3355 25.0991 93.7364 25.7264 95.2837 25.7264C98.3364 25.7264 100.156 23.3846 100.114 20.1646C100.051 16.9236 98.1901 14.8118 95.2628 14.8118C93.6946 14.8118 92.2728 15.5018 91.6455 16.6936L91.4992 15.1255H89.199V30.2427ZM91.7919 20.29C91.7919 18.4291 92.921 17.1327 94.6982 17.1327C96.4755 17.1327 97.5419 18.45 97.5419 20.29C97.5419 22.13 96.4755 23.4264 94.6982 23.4264C92.921 23.4264 91.7919 22.1509 91.7919 20.29Z" fill="#E0E0E0"/>
<path d="M100.761 22.36C100.845 24.4091 102.434 25.7264 104.901 25.7264C107.326 25.7264 108.978 24.43 108.978 22.4227C108.978 20.9382 108.058 19.9346 106.365 19.5164L104.545 19.0773C103.772 18.8682 103.249 18.5964 103.249 17.9273C103.249 17.2164 103.814 16.7146 104.734 16.7146C105.695 16.7146 106.323 17.2582 106.323 18.1573H108.644C108.56 16.1082 107.034 14.8118 104.796 14.8118C102.58 14.8118 100.928 16.1082 100.928 18.0736C100.928 19.4118 101.702 20.52 103.688 21.0427L105.486 21.5027C106.155 21.6909 106.574 22.0046 106.574 22.59C106.574 23.4055 105.8 23.7818 104.859 23.7818C103.73 23.7818 103.082 23.2591 103.082 22.36H100.761Z" fill="#E0E0E0"/>
<path d="M114.27 25.7264C115.671 25.7264 117.009 25.0782 117.615 24.1164L117.783 25.4545H120.166V15.1255H117.615V20.5409C117.615 22.4018 116.905 23.4473 115.232 23.4473C113.935 23.4473 113.036 22.82 113.036 20.6873V15.1255H110.485V21.5864C110.485 24.0536 111.824 25.7264 114.27 25.7264Z" fill="#E0E0E0"/>
<path d="M124.968 25.4546V19.5164C124.968 17.8436 125.951 17.0491 127.164 17.0491C128.376 17.0491 129.171 17.8227 129.171 19.2864V25.4546H131.659V19.5373C131.659 17.8436 132.621 17.0491 133.834 17.0491C135.067 17.0491 135.862 17.8227 135.862 19.2864V25.4546H138.329V18.7009C138.329 16.3173 137.012 14.8118 134.503 14.8118C132.935 14.8118 131.701 15.5646 131.199 16.7773C130.635 15.5646 129.505 14.8118 127.791 14.8118C126.578 14.8118 125.491 15.3764 124.885 16.2964L124.759 15.1255H122.417V25.4546H124.968Z" fill="#E0E0E0"/>
<path d="M118.853 34.6855C119.233 34.6855 119.563 34.3655 119.563 33.9855C119.563 33.5955 119.233 33.2755 118.853 33.2755C118.463 33.2755 118.133 33.5955 118.133 33.9855C118.133 34.3655 118.463 34.6855 118.853 34.6855Z" fill="#E0E0E0"/>
<path d="M120.296 32.1054C120.296 33.6354 121.236 34.6654 122.606 34.6654C123.786 34.6654 124.686 33.9554 124.876 32.8954H123.976C123.806 33.4854 123.286 33.8354 122.666 33.8354C121.786 33.8354 121.226 33.1554 121.226 32.0954C121.226 31.0154 121.816 30.3554 122.686 30.3554C123.286 30.3554 123.806 30.6754 123.966 31.3054H124.866C124.706 30.2354 123.866 29.5154 122.696 29.5154C121.276 29.5154 120.296 30.5654 120.296 32.1054Z" fill="#E0E0E0"/>
<path d="M125.231 32.0955C125.231 33.5655 126.231 34.6655 127.731 34.6655C129.231 34.6655 130.231 33.5655 130.231 32.0955C130.231 30.6255 129.231 29.5255 127.731 29.5255C126.231 29.5255 125.231 30.6255 125.231 32.0955ZM126.181 32.0955C126.181 31.0955 126.791 30.3655 127.731 30.3655C128.671 30.3655 129.281 31.0955 129.281 32.0955C129.281 33.0955 128.671 33.8255 127.731 33.8255C126.791 33.8255 126.181 33.0955 126.181 32.0955Z" fill="#E0E0E0"/>
<path d="M131.974 34.5555V31.6155C131.974 30.8455 132.454 30.3455 133.154 30.3455C133.824 30.3455 134.244 30.7755 134.244 31.5455V34.5555H135.164V31.6254C135.164 30.8454 135.634 30.3455 136.344 30.3455C137.004 30.3455 137.424 30.7755 137.424 31.5455V34.5555H138.334V31.3455C138.334 30.2155 137.674 29.5255 136.554 29.5255C135.794 29.5255 135.204 29.8954 134.964 30.4954C134.714 29.8954 134.164 29.5255 133.364 29.5255C132.754 29.5255 132.214 29.8055 131.944 30.2855L131.874 29.6655H131.034V34.5555H131.974Z" fill="#E0E0E0"/>
<path fill-rule="evenodd" clip-rule="evenodd" d="M2.01819 20.3957L2.01994 20.2135L2.02356 20.0313L2.02905 19.849L2.03641 19.6667L2.04564 19.4844L2.05674 19.3022L2.06972 19.12L2.08457 18.9378L2.1013 18.7557L2.1199 18.5736L2.14037 18.3918L2.16271 18.21L2.18692 18.0284L2.21302 17.8469L2.24097 17.6656L2.2708 17.4846L2.3025 17.3037L2.33605 17.1232L2.37148 16.9428L2.40877 16.7627L2.44792 16.5829L2.48892 16.4034L2.5318 16.2244L2.57651 16.0455L2.62308 15.8672L2.67149 15.6891L2.72175 15.5114L2.77385 15.3343L2.82779 15.1575L2.88355 14.9813L2.94115 14.8054L3.00058 14.6301L3.06182 14.4553L3.12488 14.281L3.18975 14.1073L3.25642 13.9341L3.32491 13.7615L3.39518 13.5895L3.46724 13.4183L3.54109 13.2475L3.61672 13.0774L3.69412 12.9081L3.77328 12.7394L3.85421 12.5714L3.93689 12.4042L4.02132 12.2377L4.10748 12.072L4.19538 11.907L4.285 11.7429L4.37633 11.5795L4.46939 11.417L4.56413 11.2554L4.66058 11.0945L4.75871 10.9346L4.85852 10.7756L4.95999 10.6175L5.06312 10.4604L5.16792 10.3042L5.27434 10.149L5.38241 9.99472L5.49209 9.84145L5.60338 9.68927L5.71628 9.53799L5.83077 9.3879L5.94685 9.23881L6.0645 9.09076L6.18371 8.94385L6.30447 8.79805L6.42677 8.65338L6.55061 8.50984L6.67596 8.36747L6.80282 8.22628L6.93117 8.08627L7.06102 7.94747L7.19232 7.80989L7.3251 7.67354L7.45932 7.53844L7.59497 7.4046L7.73205 7.27205L7.87054 7.14079L8.01043 7.01084L8.15171 6.8822L8.29435 6.75491L8.43836 6.62897L8.58372 6.50438L8.7304 6.38118L8.8784 6.25937L9.02771 6.13896L9.17831 6.01997L9.33019 5.9024L9.48328 5.78629L9.63773 5.67163L9.79337 5.55845L9.95019 5.44675L10.1082 5.33654L10.2675 5.22784L10.4278 5.12065L10.5894 5.015L10.7521 4.91089L10.916 4.80835L11.0809 4.70737L11.247 4.60796L11.4141 4.51015L11.5823 4.41394L11.7516 4.31934L11.9218 4.22637L12.0931 4.13502L12.2654 4.04533L12.4386 3.95729L12.6129 3.87091L12.7881 3.78621L12.9643 3.70319L13.1413 3.62188L13.3193 3.54227L13.4981 3.46437L13.6778 3.38819L13.8584 3.31376L14.0397 3.24106L14.2219 3.1701L14.4049 3.10092L14.5886 3.03349L14.7732 2.96786L14.9585 2.90399L15.1445 2.84192L15.3311 2.78166L15.5185 2.72319L15.7066 2.66655L15.8953 2.61173L16.0845 2.55874L16.2745 2.50758L16.4651 2.45826L16.6562 2.41079L16.8478 2.36519L17.0401 2.32144L17.2328 2.27957L17.426 2.23956L17.6197 2.20143L17.8139 2.16519L18.0085 2.13084L18.2036 2.09839L18.3991 2.06783L18.5949 2.03918L18.7911 2.01244L18.9876 1.98761L19.1845 1.9647L19.3817 1.9437L19.5792 1.92465L19.7769 1.90751L19.9749 1.8923L20.1731 1.87904L21.2389 1.81818L21.2997 6.95333L21.3345 6.95293L21.4817 6.95272L21.6289 6.95396L21.7761 6.95664L21.9235 6.96078L22.0707 6.96636L22.2181 6.97338L22.3655 6.98186L22.5128 6.99179L22.6601 7.00317L22.8075 7.016L22.9546 7.03029L23.1018 7.04604L23.2488 7.06323L23.3958 7.08188L23.5426 7.10198L23.6894 7.12352L23.8359 7.14653L23.9824 7.17099L24.1285 7.19689L24.2746 7.22424L24.4205 7.25304L24.566 7.28329L24.7115 7.31498L24.8566 7.34812L25.0014 7.38269L25.146 7.41871L25.2903 7.45618L25.4342 7.49507L25.5778 7.53539L25.7212 7.57715L25.8641 7.62033L26.0066 7.66494L26.1488 7.71098L26.2906 7.75843L26.432 7.80729L26.5729 7.85758L26.7135 7.90926L26.8535 7.96236L26.993 8.01685L27.1321 8.07275L27.2706 8.13004L27.4086 8.18871L27.5462 8.24878L27.6832 8.31022L27.8195 8.37304L27.9554 8.43722L28.0906 8.50278L28.2253 8.56969L28.3593 8.63797L28.4926 8.70759L28.6254 8.77855L28.7575 8.85086L28.8888 8.92449L29.0195 8.99946L29.1495 9.07574L29.2788 9.15336L29.4074 9.23227L29.5352 9.31245L29.6622 9.39399L29.7885 9.47672L29.9139 9.56081L30.0386 9.64618L30.1625 9.73272L30.2855 9.82063L30.4077 9.90972L30.529 10.0001L30.6495 10.0917L30.7691 10.1845L30.8878 10.2786L31.0056 10.3738L31.1225 10.4703L31.2384 10.568L31.3534 10.6668L31.4675 10.7668L31.5805 10.868L31.6925 10.9704L31.8036 11.0739L31.9137 11.1785L32.0228 11.2843L32.1308 11.3912L32.2378 11.4992L32.3437 11.6084L32.4486 11.7185L32.5524 11.8298L32.6551 11.9422L32.7566 12.0556L32.8571 12.1701L32.9565 12.2856L33.0546 12.4022L33.1517 12.5197L33.2476 12.6384L33.3424 12.7579L33.4359 12.8784L33.5283 13L33.6195 13.1225L33.7094 13.246L33.7981 13.3704L33.8855 13.4958L33.9718 13.622L34.0568 13.7492L34.1405 13.8773L34.223 14.0063L34.3041 14.1361L34.384 14.2667L34.4626 14.3983L34.5398 14.5306L34.6157 14.6638L34.6904 14.7978L34.7636 14.9326L34.8355 15.0682L34.9061 15.2045L34.9753 15.3416L35.0431 15.4794L35.1096 15.6181L35.1746 15.7574L35.2383 15.8974L35.3005 16.0381L35.3614 16.1794L35.4207 16.3215L35.4787 16.4642L35.5353 16.6075L35.5904 16.7514L35.644 16.8961L35.6962 17.0412L35.7469 17.187L35.7962 17.3333L35.844 17.4802L35.8903 17.6275L35.9351 17.7754L35.9784 17.9239L36.0202 18.0728L36.0605 18.2223L36.0993 18.3722L36.1365 18.5224L36.1723 18.6733L36.2065 18.8244L36.2391 18.9761L36.2703 19.128L36.2998 19.2804L36.3278 19.4332L36.3544 19.5863L36.3793 19.7396L36.4026 19.8934L36.4245 20.0474L36.4446 20.2017L36.4633 20.3564L36.4804 20.5112L36.4958 20.6663L36.5097 20.8215L36.5221 20.9771L36.5328 21.1328L36.5419 21.2887L36.5495 21.4447L36.5555 21.601L36.5597 21.7573L36.5625 21.9137L36.5636 22.0703L36.5632 22.2269L36.5611 22.3836L36.5574 22.5404L36.5521 22.6972L36.5452 22.854L36.5367 23.0108L36.5266 23.1676L36.5148 23.3244L36.5015 23.4812L36.4865 23.6379L36.4699 23.7945L36.4516 23.951L36.4318 24.1074L36.4105 24.2637L36.3874 24.4199L36.3627 24.5759L36.3365 24.7317L36.3085 24.8874L36.2791 25.0428L36.248 25.1981L36.2153 25.3531L36.1809 25.5078L36.145 25.6624L36.1075 25.8165L36.0684 25.9704L36.0276 26.124L35.9854 26.2773L35.9415 26.4302L35.896 26.5827L35.8489 26.735L35.8002 26.8867L35.75 27.0382L35.6982 27.1891L35.6447 27.3396L35.5898 27.4897L35.5333 27.6393L35.4752 27.7884L35.4155 27.937L35.3544 28.0851L35.2916 28.2326L35.2274 28.3797L35.1615 28.5261L35.0942 28.672L35.0253 28.8173L34.9549 28.9619L34.8829 29.106L34.8095 29.2494L34.7345 29.3922L34.6582 29.5342L34.5802 29.6756L34.5008 29.8163L34.4199 29.9563L34.3375 30.0955L34.2537 30.234L34.1685 30.3718L34.0816 30.5087L33.9935 30.6449L33.9039 30.7803L33.8128 30.9148L33.7204 31.0485L33.6265 31.1814L33.5312 31.3134L33.4345 31.4446L33.3364 31.5749L33.2369 31.7043L33.1361 31.8326L33.0339 31.9602L32.9304 32.0867L32.8255 32.2123L32.7192 32.3369L32.6116 32.4605L32.5027 32.5832L32.3925 32.7048L32.2811 32.8254L32.1684 32.945L32.0543 33.0635L31.939 33.1809L31.8224 33.2973L31.7045 33.4125L31.5856 33.5267L31.4653 33.6398L31.3438 33.7517L31.2211 33.8625L31.0972 33.9721L30.9722 34.0805L30.8459 34.1879L30.7185 34.294L30.59 34.3988L30.4604 34.5025L30.3296 34.605L30.1976 34.7062L30.0646 34.8061L29.9306 34.9048L29.7955 35.0023L29.6592 35.0984L29.5219 35.1933L29.3836 35.2868L29.2444 35.379L29.104 35.4699L28.9627 35.5595L28.8205 35.6477L28.6772 35.7346L28.5329 35.8201L28.3877 35.9043L28.2417 35.987L28.0946 36.0683L27.9468 36.1483L27.798 36.2267L27.6484 36.3038L27.4978 36.3795L27.3465 36.4537L27.1943 36.5264L27.0413 36.5978L26.8875 36.6676L26.7329 36.736L26.5776 36.8028L26.4215 36.8682L26.2646 36.9321L26.1071 36.9944L25.9488 37.0553L25.7898 37.1146L25.6302 37.1724L25.4698 37.2286L25.3089 37.2833L25.1474 37.3364L24.9851 37.388L24.8223 37.438L24.6589 37.4864L24.495 37.5333L24.3305 37.5785L24.1655 37.6223L23.9998 37.6643L23.8338 37.7047L23.6673 37.7436L23.5002 37.7808L23.3327 37.8164L23.1648 37.8504L22.9965 37.8828L22.8277 37.9135L22.6586 37.9425L22.4891 37.97L22.3193 37.9958L22.149 38.0199L21.9785 38.0424L21.8077 38.0632L21.6366 38.0823L21.4652 38.0997L21.2936 38.1155L21.1217 38.1296L20.9496 38.1421L20.7774 38.1528L20.6048 38.1619L20.4322 38.1693L20.2595 38.1749L20.0865 38.1789L19.9135 38.1812L19.7403 38.1818L19.5671 38.1807L19.3938 38.1779L19.2205 38.1734L19.0471 38.1672L18.8737 38.1593L18.7004 38.1497L18.5271 38.1384L18.3537 38.1254L18.1806 38.1106L18.0074 38.0942L17.8343 38.0761L17.6614 38.0563L17.4886 38.0347L17.3158 38.0114L17.1434 37.9864L16.971 37.9598L16.7989 37.9314L16.627 37.9014L16.4553 37.8696L16.2839 37.8362L16.1127 37.8011L15.9419 37.7642L15.7713 37.7256L15.6011 37.6854L15.4312 37.6435L15.2616 37.5999L15.0925 37.5546L14.9237 37.5077L14.7554 37.4591L14.5874 37.4088L14.4199 37.3568L14.2529 37.3032L14.0864 37.2479L13.9203 37.1909L13.7547 37.1323L13.5897 37.0721L13.4253 37.0102L13.2614 36.9466L13.0981 36.8814L12.9354 36.8146L12.7733 36.7462L12.6118 36.6762L12.451 36.6045L12.2908 36.5313L12.1314 36.4564L11.9726 36.3799L11.8146 36.3018L11.6573 36.2222L11.5007 36.141L11.345 36.0582L11.1899 35.9739L11.0357 35.888L10.8824 35.8005L10.7298 35.7115L10.5781 35.621L10.4273 35.529L10.2773 35.4354L10.1282 35.3404L9.9801 35.2437L9.83282 35.1457L9.68655 35.0461L9.54128 34.9451L9.39691 34.8426L9.25356 34.7386L9.11122 34.6333L8.96989 34.5264L8.82961 34.4181L8.69037 34.3084L8.5522 34.1973L8.41512 34.0848L8.27912 33.9709L8.14424 33.8556L8.01049 33.739L7.87788 33.6209L7.74642 33.5015L7.61614 33.3809L7.48703 33.2588L7.35913 33.1355L7.23244 33.0108L7.10697 32.8849L6.98274 32.7577L6.85977 32.6292L6.73806 32.4994L6.61763 32.3684L6.49851 32.2362L6.38068 32.1027L6.26417 31.9681L6.149 31.8322L6.03517 31.6952L5.92271 31.5569L5.81161 31.4175L5.7019 31.277L5.59358 31.1354L5.48667 30.9925L5.38118 30.8486L5.27712 30.7036L5.17451 30.5575L5.07335 30.4104L4.97366 30.2623L4.87545 30.113L4.77873 29.9628L4.68351 29.8115L4.5898 29.6593L4.49762 29.5061L4.40696 29.3518L4.31786 29.1967L4.23031 29.0406L4.14432 28.8836L4.05991 28.7256L3.97707 28.5668L3.89584 28.4072L3.81621 28.2466L3.7382 28.0853L3.66181 27.923L3.58704 27.76L3.51392 27.5961L3.44245 27.4315L3.37264 27.2661L3.30451 27.1L3.23803 26.9331L3.17325 26.7654L3.11017 26.5972L3.04878 26.4282L2.9891 26.2585L2.93112 26.0883L2.87488 25.9173L2.82037 25.7457L2.76759 25.5735L2.71656 25.4008L2.66728 25.2274L2.61975 25.0535L2.57399 24.8792L2.53 24.7043L2.48778 24.5288L2.44735 24.3529L2.40871 24.1764L2.37185 23.9996L2.3368 23.8224L2.30354 23.6447L2.2721 23.4666L2.24247 23.2882L2.21465 23.1094L2.18866 22.9302L2.1645 22.7506L2.14217 22.5708L2.12167 22.3907L2.10301 22.2104L2.08619 22.0298L2.07122 21.8489L2.05809 21.6678L2.04682 21.4865L2.0374 21.3051L2.02983 21.1234L2.02412 20.9417L2.02028 20.7598L2.01831 20.5778L2.01819 20.3957ZM19.6346 7.06089L19.5932 3.56071L19.5538 3.56451L19.3731 3.58375L19.1928 3.60473L19.0126 3.62749L18.8332 3.65195L18.6539 3.67819L18.4748 3.70618L18.2963 3.73589L18.1179 3.76737L17.9405 3.80049L17.7627 3.83546L17.5863 3.872L17.4096 3.91039L17.2337 3.95041L17.0581 3.99221L16.8833 4.03561L16.7089 4.08076L16.535 4.12759L16.3616 4.1761L16.1891 4.22625L16.0168 4.27812L15.8455 4.3316L15.6746 4.38679L15.5045 4.44349L15.3348 4.50199L15.166 4.56206L14.998 4.62371L14.8305 4.68705L14.6638 4.75193L14.4981 4.81838L14.3328 4.88653L14.1684 4.95623L14.0047 5.02752L13.842 5.10031L13.6801 5.17469L13.5191 5.25056L13.3586 5.3281L13.1994 5.40707L13.0409 5.48757L12.8834 5.56959L12.7267 5.65312L12.5712 5.73809L12.4163 5.82462L12.2624 5.91266L12.1098 6.00195L11.9577 6.09299L11.8071 6.18523L11.6575 6.27891L11.5086 6.37413L11.3608 6.47074L11.2142 6.56876L11.0689 6.66793L10.9242 6.76886L10.7809 6.87087L10.6387 6.97429L10.4976 7.07912L10.3576 7.1852L10.219 7.29256L10.0812 7.40142L9.94492 7.51132L9.80964 7.62267L9.67564 7.73522L9.54282 7.84908L9.41137 7.96404L9.2809 8.08045L9.15192 8.19789L9.02403 8.31669L8.89763 8.43649L8.77239 8.55759L8.64853 8.67978L8.52594 8.80318L8.40454 8.92786L8.28473 9.05338L8.16627 9.17999L8.04886 9.30809L7.93308 9.43699L7.81872 9.56681L7.70552 9.69799L7.59398 9.82999L7.48367 9.96318L7.37484 10.0973L7.26744 10.2324L7.16144 10.3685L7.05701 10.5055L6.95393 10.6435L6.85228 10.7826L6.75226 10.9224L6.65358 11.0633L6.55647 11.2049L6.46086 11.3474L6.36669 11.4909L6.27411 11.6352L6.18304 11.7802L6.09351 11.9261L6.00557 12.0727L5.91908 12.2203L5.83414 12.3686L5.75088 12.5175L5.66911 12.6673L5.5889 12.8178L5.51032 12.969L5.43328 13.1209L5.3579 13.2734L5.28409 13.4265L5.21191 13.5804L5.1413 13.7349L5.07236 13.8899L5.00499 14.0456L4.93926 14.2019L4.87522 14.3586L4.81277 14.516L4.75196 14.6739L4.69282 14.8323L4.63532 14.9912L4.57952 15.1504L4.52533 15.3104L4.47282 15.4706L4.422 15.6314L4.37285 15.7924L4.32534 15.954L4.27955 16.1158L4.23543 16.2781L4.19299 16.4406L4.15223 16.6036L4.11318 16.7668L4.07582 16.9304L4.04014 17.0942L4.00617 17.2583L3.9739 17.4225L3.94332 17.5871L3.91444 17.7518L3.88727 17.9168L3.86181 18.0819L3.83804 18.2472L3.81599 18.4126L3.79563 18.5782L3.77699 18.7438L3.76005 18.9096L3.74482 19.0754L3.7313 19.2413L3.71948 19.4073L3.70937 19.5733L3.70096 19.7392L3.69426 19.9052L3.68926 20.0711L3.68597 20.237L3.68437 20.4028L3.68448 20.5686L3.68628 20.7343L3.68978 20.8999L3.69497 21.0654L3.70185 21.2306L3.71043 21.3958L3.72069 21.5607L3.73263 21.7255L3.74626 21.8901L3.76157 22.0544L3.77854 22.2186L3.7972 22.3824L3.81752 22.5461L3.8395 22.7094L3.86314 22.8724L3.88845 23.0351L3.9154 23.1974L3.94401 23.3594L3.97425 23.521L4.00613 23.6822L4.03965 23.8431L4.0748 24.0034L4.11157 24.1634L4.14996 24.323L4.18996 24.4821L4.23158 24.6407L4.27478 24.7987L4.3196 24.9564L4.366 25.1134L4.41398 25.27L4.46354 25.426L4.51466 25.5814L4.56735 25.7362L4.62161 25.8904L4.67741 26.044L4.73473 26.1969L4.79363 26.3493L4.85402 26.5009L4.91594 26.6519L4.97939 26.8022L5.04432 26.9517L5.11077 27.1006L5.1787 27.2488L5.24811 27.3962L5.31898 27.5428L5.39132 27.6886L5.46512 27.8337L5.54036 27.978L5.61703 28.1214L5.69514 28.2641L5.77466 28.4058L5.85559 28.5467L5.93792 28.6868L6.02164 28.8259L6.10671 28.9642L6.1932 29.1015L6.28101 29.2379L6.37019 29.3734L6.46071 29.508L6.55253 29.6415L6.64568 29.7742L6.74016 29.9058L6.83591 30.0364L6.93297 30.1661L7.03126 30.2946L7.13087 30.4222L7.23167 30.5486L7.33374 30.6741L7.43707 30.7985L7.54155 30.9218L7.64728 31.044L7.75418 31.1651L7.8623 31.2851L7.97155 31.4039L8.08194 31.5216L8.19351 31.6382L8.30619 31.7536L8.42002 31.8679L8.53493 31.9809L8.65097 32.0928L8.76804 32.2034L8.8862 32.313L9.00544 32.4213L9.12571 32.5283L9.24693 32.634L9.36928 32.7385L9.49264 32.8418L9.61682 32.9438L9.74219 33.0446L9.86837 33.144L9.99555 33.2422L10.1236 33.3391L10.2527 33.4346L10.3826 33.5288L10.5135 33.6217L10.6451 33.7133L10.7777 33.8035L10.9111 33.8924L11.0455 33.9799L11.1805 34.0661L11.3164 34.1508L11.4531 34.2343L11.5905 34.3163L11.7287 34.3969L11.8676 34.4761L12.0074 34.5539L12.1477 34.6303L12.2889 34.7053L12.4306 34.7788L12.5731 34.851L12.7163 34.9216L12.8601 34.9909L13.0045 35.0587L13.1495 35.1251L13.295 35.1899L13.4413 35.2534L13.588 35.3153L13.7354 35.3758L13.8832 35.4348L14.0316 35.4923L14.1805 35.5484L14.3297 35.6029L14.4796 35.6559L14.6299 35.7074L14.7806 35.7575L14.9318 35.8061L15.0833 35.8531L15.2354 35.8986L15.3876 35.9426L15.5404 35.9851L15.6935 36.0261L15.8468 36.0655L16.0006 36.1034L16.1545 36.1398L16.3088 36.1747L16.4634 36.208L16.6181 36.2398L16.7732 36.2701L16.9285 36.2988L17.0839 36.326L17.2396 36.3516L17.3954 36.3757L17.5514 36.3983L17.7076 36.4193L17.8637 36.4388L18.0201 36.4567L18.1766 36.4731L18.3331 36.488L18.4897 36.5013L18.6464 36.5131L18.803 36.5233L18.9597 36.532L19.1164 36.5391L19.273 36.5447L19.4296 36.5488L19.5863 36.5513L19.7427 36.5523L19.8992 36.5517L20.0556 36.5496L20.2117 36.5461L20.3678 36.5409L20.5238 36.5343L20.6796 36.5261L20.8352 36.5164L20.9906 36.5052L21.1459 36.4924L21.3009 36.4782L21.4556 36.4624L21.6102 36.4451L21.7644 36.4264L21.9184 36.4061L22.072 36.3843L22.2254 36.361L22.3784 36.3363L22.5311 36.31L22.6835 36.2823L22.8354 36.2531L22.9869 36.2224L23.1381 36.1903L23.2888 36.1567L23.4391 36.1216L23.589 36.0851L23.7384 36.0472L23.8873 36.0077L24.0356 35.9669L24.1836 35.9246L24.331 35.8809L24.4779 35.8358L24.6242 35.7894L24.77 35.7414L24.9152 35.6921L25.0596 35.6414L25.2037 35.5892L25.3471 35.5357L25.4898 35.4808L25.6319 35.4246L25.7733 35.3671L25.914 35.3081L26.0541 35.2478L26.1935 35.1862L26.332 35.1233L26.47 35.059L26.6072 34.9934L26.7436 34.9265L26.8793 34.8583L27.0141 34.7888L27.1482 34.7181L27.2815 34.646L27.4139 34.5727L27.5455 34.4982L27.6763 34.4224L27.8064 34.3454L27.9353 34.2672L28.0636 34.1876L28.1908 34.107L28.3172 34.0251L28.4427 33.942L28.5674 33.8576L28.6908 33.7724L28.8135 33.6857L28.9352 33.598L29.0559 33.5092L29.1757 33.4191L29.2944 33.3281L29.4123 33.2357L29.5289 33.1424L29.6445 33.0481L29.7594 32.9525L29.873 32.8559L29.9855 32.7584L30.097 32.6596L30.2074 32.56L30.3167 32.4593L30.425 32.3575L30.532 32.2549L30.6381 32.1511L30.743 32.0464L30.8467 31.9407L30.9494 31.8341L31.0507 31.7266L31.1509 31.6183L31.2502 31.5086L31.348 31.3984L31.4448 31.2872L31.5403 31.1752L31.6346 31.0622L31.7277 30.9484L31.8196 30.8338L31.9103 30.7183L31.9996 30.6021L32.0879 30.4849L32.1747 30.3671L32.2605 30.2484L32.345 30.1288L32.4279 30.0088L32.5098 29.8878L32.5903 29.7663L32.6695 29.6438L32.7476 29.5206L32.8242 29.397L32.8995 29.2726L32.9735 29.1473L33.0461 29.0217L33.1175 28.8953L33.1875 28.7682L33.2561 28.6407L33.3235 28.5124L33.3895 28.3834L33.4539 28.2544L33.5172 28.1244L33.5791 27.9938L33.6395 27.8629L33.6986 27.7314L33.7564 27.5994L33.8126 27.4671L33.8676 27.334L33.9212 27.2005L33.9733 27.067L34.024 26.9324L34.0733 26.7979L34.1213 26.6627L34.1678 26.5273L34.2129 26.3914L34.2565 26.2554L34.2988 26.1185L34.3396 25.9818L34.3789 25.8446L34.4169 25.7073L34.4535 25.5694L34.4885 25.4314L34.5222 25.2931L34.5544 25.1544L34.5852 25.0157L34.6145 24.8766L34.6424 24.7376L34.6688 24.598L34.6938 24.4587L34.7174 24.3189L34.7395 24.179L34.7601 24.0391L34.7794 23.8989L34.7971 23.7589L34.8135 23.6183L34.8283 23.4782L34.8417 23.3376L34.8536 23.1974L34.8642 23.0566L34.8733 22.9164L34.8809 22.7758L34.8871 22.6351L34.8918 22.4947L34.8952 22.3546L34.897 22.214L34.8975 22.0736L34.8965 21.9334L34.894 21.7934L34.8901 21.6533L34.8847 21.5137L34.878 21.3736L34.8698 21.2342L34.8602 21.0947L34.8492 20.9557L34.8367 20.8164L34.8229 20.6778L34.8076 20.5391L34.7909 20.4008L34.7728 20.2626L34.7534 20.1249L34.7324 19.9871L34.7101 19.8499L34.6865 19.7132L34.6614 19.5764L34.6348 19.44L34.607 19.3042L34.5777 19.1683L34.5473 19.0334L34.5152 18.8983L34.482 18.7641L34.4472 18.6297L34.4112 18.4964L34.3738 18.3632L34.3351 18.2303L34.2951 18.0982L34.2537 17.9665L34.2109 17.835L34.167 17.7044L34.1216 17.574L34.075 17.4444L34.027 17.315L33.9778 17.1865L33.9272 17.0583L33.8754 16.9307L33.8224 16.804L33.7681 16.6778L33.7123 16.5518L33.6556 16.427L33.5974 16.3023L33.5381 16.1787L33.4776 16.0556L33.4156 15.933L33.3527 15.8114L33.2885 15.6903L33.2229 15.5697L33.1565 15.4504L33.0886 15.3313L33.0197 15.2132L32.9495 15.0956L32.8784 14.9793L32.8057 14.8632L32.7323 14.7482L32.6575 14.6337L32.5816 14.5203L32.5048 14.4078L32.4266 14.2958L32.3475 14.1848L32.2673 14.0746L32.1859 13.9654L32.1035 13.8569L32.0201 13.7494L31.9356 13.6427L31.8501 13.537L31.7635 13.4322L31.6759 13.3282L31.5873 13.2252L31.4977 13.1231L31.4073 13.022L31.3157 12.9218L31.223 12.8224L31.1298 12.7244L31.0351 12.627L30.9399 12.5309L30.8436 12.4355L30.7465 12.3414L30.6482 12.2479L30.5495 12.1559L30.4495 12.0646L30.3486 11.9744L30.2473 11.8854L30.1449 11.7974L30.0414 11.7103L29.9373 11.6244L29.8325 11.5395L29.7267 11.4558L29.6202 11.3731L29.5131 11.2917L29.4048 11.211L29.2962 11.1318L29.1866 11.0536L29.0763 10.9764L28.9655 10.9005L28.8535 10.8255L28.7415 10.7521L28.6282 10.6794L28.5145 10.6081L28.4 10.5378L28.285 10.4687L28.1694 10.4009L28.0533 10.3344L27.9361 10.2686L27.8189 10.2044L27.7007 10.1413L27.5821 10.0794L27.463 10.0187L27.3432 9.95918L27.2229 9.90081L27.1022 9.84381L26.9808 9.7879L26.8592 9.73336L26.7369 9.6799L26.6103 9.62609L26.4912 9.5769L26.3673 9.52709L26.2435 9.47881L26.1188 9.43145L25.9941 9.38563L25.8688 9.3409L25.7433 9.29754L25.6172 9.25527L25.491 9.21445L25.3643 9.17481L25.2373 9.13645L25.1102 9.09945L24.9825 9.06359L24.8545 9.02898L24.7266 8.99577L24.5984 8.96382L24.4694 8.93305L24.3408 8.90369L24.2116 8.87551L24.0825 8.84869L23.9528 8.82309L23.8234 8.79884L23.6936 8.77584L23.5638 8.75418L23.4335 8.73372L23.3035 8.71462L23.1732 8.69679L23.0427 8.68023L22.9123 8.66498L22.7818 8.65103L22.6513 8.63836L22.5206 8.62698L22.3899 8.61688L22.2591 8.60806L22.1286 8.60055L21.9981 8.59432L21.8671 8.58937L21.7368 8.58571L21.6063 8.58333L21.4758 8.58224L21.3452 8.58242L21.319 8.58272L21.3602 12.0574L21.4343 12.0571L21.5296 12.0576L21.625 12.0591L21.7205 12.0615L21.816 12.0649L21.9116 12.0693L22.0071 12.0745L22.1027 12.0807L22.1984 12.0879L22.294 12.096L22.3896 12.1051L22.4852 12.1151L22.5808 12.1261L22.6764 12.138L22.7718 12.1508L22.8673 12.1647L22.9626 12.1794L23.0579 12.1952L23.1532 12.2119L23.2483 12.2295L23.3433 12.2482L23.4382 12.2677L23.533 12.2882L23.6276 12.3096L23.7221 12.3321L23.8165 12.3554L23.9105 12.3797L24.0045 12.405L24.0984 12.4312L24.192 12.4584L24.2855 12.4864L24.3786 12.5154L24.4715 12.5454L24.5643 12.5764L24.6568 12.6083L24.749 12.6411L24.841 12.6748L24.9326 12.7094L25.0241 12.7451L25.1152 12.7816L25.206 12.8191L25.2965 12.8575L25.3866 12.8968L25.4765 12.9371L25.5659 12.9782L25.655 13.0203L25.7438 13.0633L25.8322 13.1072L25.9202 13.152L26.0078 13.1977L26.095 13.2443L26.1818 13.2918L26.2682 13.3402L26.3541 13.3894L26.4396 13.4396L26.5247 13.4907L26.6093 13.5426L26.6934 13.5954L26.777 13.6492L26.8602 13.7037L26.9428 13.7591L27.025 13.8154L27.1066 13.8725L27.1877 13.9304L27.2683 13.9893L27.3483 14.049L27.4278 14.1094L27.5066 14.1708L27.585 14.233L27.6627 14.2959L27.7399 14.3597L27.8165 14.4244L27.8925 14.4897L27.9678 14.5559L28.0425 14.6229L28.1166 14.6907L28.19 14.7593L28.2628 14.8286L28.3349 14.8987L28.4064 14.9696L28.4772 15.0413L28.5473 15.1137L28.6167 15.1868L28.6854 15.2607L28.7534 15.3354L28.8206 15.4107L28.8872 15.4867L28.953 15.5635L29.0181 15.641L29.0825 15.7192L29.146 15.7981L29.2088 15.8776L29.2708 15.9579L29.3321 16.0388L29.3925 16.1204L29.4522 16.2026L29.5111 16.2855L29.5691 16.3691L29.6264 16.4533L29.6827 16.5381L29.7383 16.6234L29.793 16.7095L29.8469 16.7962L29.9 16.8834L29.9522 16.9712L30.0035 17.0596L30.0539 17.1485L30.1035 17.2381L30.1521 17.3282L30.1999 17.4188L30.2468 17.51L30.2927 17.6017L30.3378 17.694L30.382 17.7867L30.4252 17.8799L30.4675 17.9737L30.5088 18.0679L30.5493 18.1626L30.5887 18.2578L30.6273 18.3534L30.6648 18.4495L30.7014 18.546L30.737 18.643L30.7716 18.7404L30.8054 18.8382L30.8381 18.9364L30.8697 19.035L30.9005 19.1339L30.9302 19.2333L30.9589 19.333L30.9866 19.4331L31.0133 19.5335L31.039 19.6343L31.0636 19.7354L31.0873 19.8367L31.1099 19.9384L31.1315 20.0404L31.152 20.1427L31.1715 20.2453L31.1899 20.3482L31.2074 20.4513L31.2237 20.5545L31.239 20.6582L31.2533 20.7619L31.2665 20.8659L31.2786 20.9702L31.2896 21.0746L31.2996 21.1792L31.3086 21.284L31.3165 21.3889L31.3233 21.494L31.3289 21.5992L31.3335 21.7045L31.3371 21.8101L31.3396 21.9156L31.3409 22.0214L31.3412 22.1272L31.3404 22.233L31.3385 22.3389L31.3355 22.4449L31.3314 22.551L31.3262 22.657L31.3199 22.7631L31.3125 22.8693L31.3041 22.9754L31.2945 23.0814L31.2838 23.1875L31.272 23.2935L31.2592 23.3996L31.2452 23.5055L31.2301 23.6114L31.2139 23.7173L31.1966 23.823L31.1783 23.9286L31.1587 24.0342L31.1382 24.1396L31.1165 24.2449L31.0936 24.3501L31.0698 24.4551L31.0448 24.5599L31.0187 24.6645L30.9916 24.7691L30.9633 24.8734L30.9339 24.9774L30.9035 25.0813L30.8719 25.1849L30.8393 25.2884L30.8055 25.3915L30.7706 25.4944L30.7347 25.597L30.6978 25.6994L30.6597 25.8014L30.6206 25.9031L30.5804 26.0045L30.5391 26.1056L30.4967 26.2064L30.4533 26.3068L30.4088 26.4069L30.3633 26.5066L30.3166 26.6059L30.269 26.7048L30.2203 26.8034L30.1705 26.9014L30.1196 26.9992L30.0678 27.0964L30.0149 27.1932L29.961 27.2895L29.9061 27.3854L29.8501 27.4808L29.7931 27.5758L29.7351 27.6702L29.6761 27.7642L29.616 27.8575L29.555 27.9504L29.4929 28.0427L29.4299 28.1345L29.3659 28.2258L29.3009 28.3164L29.2349 28.4065L29.168 28.4961L29.1001 28.585L29.0312 28.6733L28.9614 28.7609L28.8906 28.848L28.8188 28.9344L28.7462 29.0202L28.6725 29.1053L28.598 29.1897L28.5226 29.2734L28.4462 29.3565L28.3689 29.4389L28.2908 29.5206L28.2117 29.6015L28.1318 29.6818L28.0509 29.7613L27.9693 29.8401L27.8866 29.9181L27.8033 29.9953L27.719 30.0718L27.6338 30.1474L27.5479 30.2224L27.4611 30.2965L27.3735 30.3698L27.2851 30.4424L27.1959 30.514L27.1058 30.5848L27.015 30.6548L26.9235 30.724L26.8311 30.7923L26.7379 30.8597L26.6441 30.9264L26.5495 30.992L26.4541 31.0568L26.3579 31.1207L26.2611 31.1837L26.1635 31.2458L26.0654 31.307L25.9664 31.3672L25.8668 31.4265L25.7665 31.4849L25.6656 31.5423L25.5639 31.5987L25.4616 31.6543L25.3587 31.7088L25.2552 31.7624L25.151 31.8149L25.0463 31.8664L24.9409 31.9171L24.8349 31.9666L24.7284 32.0152L24.6213 32.0627L24.5136 32.1093L24.4054 32.1547L24.2966 32.1992L24.1874 32.2426L24.0776 32.285L23.9673 32.3264L23.8565 32.3666L23.7452 32.4058L23.6334 32.4439L23.5212 32.481L23.4085 32.5169L23.2954 32.5518L23.1818 32.5856L23.0678 32.6183L22.9535 32.6499L22.8386 32.6804L22.7235 32.7097L22.6079 32.738L22.492 32.7652L22.3756 32.7912L22.2591 32.8161L22.1421 32.8398L22.0248 32.8624L21.9073 32.884L21.7894 32.9044L21.6712 32.9235L21.5528 32.9415L21.4341 32.9584L21.3151 32.9742L21.1959 32.9888L21.0765 33.0022L20.9569 33.0144L20.8371 33.0255L20.7171 33.0354L20.5969 33.0442L20.4765 33.0517L20.356 33.0581L20.2354 33.0633L20.1145 33.0673L19.9936 33.0701L19.8726 33.0717L19.7515 33.0722L19.6303 33.0714L19.5091 33.0694L19.3877 33.0664L19.2664 33.062L19.145 33.0564L19.0236 33.0497L18.9022 33.0418L18.7807 33.0327L18.6594 33.0224L18.538 33.0108L18.4166 32.9981L18.2954 32.9842L18.1742 32.9691L18.053 32.9527L17.932 32.9352L17.8111 32.9164L17.6903 32.8965L17.5696 32.8754L17.449 32.8531L17.3286 32.8295L17.2085 32.8047L17.0884 32.7788L16.9686 32.7517L16.8489 32.7234L16.7295 32.6938L16.6103 32.6631L16.4913 32.6312L16.3726 32.5981L16.2542 32.5638L16.136 32.5284L16.0181 32.4917L15.9005 32.4538L15.7834 32.4148L15.6664 32.3746L15.5498 32.3333L15.4336 32.2907L15.3177 32.247L15.2023 32.2021L15.0872 32.1561L14.9725 32.1088L14.8582 32.0604L14.7444 32.011L14.631 31.9603L14.518 31.9084L14.4056 31.8555L14.2936 31.8014L14.182 31.7462L14.0709 31.6898L13.9605 31.6324L13.8505 31.5737L13.741 31.514L13.6321 31.4532L13.5237 31.3912L13.4159 31.3282L13.3087 31.264L13.2021 31.1987L13.0961 31.1324L12.9907 31.065L12.886 30.9965L12.7819 30.9269L12.6785 30.8563L12.5756 30.7846L12.4736 30.7119L12.3721 30.6381L12.2714 30.5633L12.1713 30.4874L12.072 30.4104L11.9735 30.3325L11.8756 30.2535L11.7786 30.1736L11.6822 30.0926L11.5866 30.0107L11.4919 29.9277L11.3979 29.8438L11.3047 29.7589L11.2125 29.6731L11.1209 29.5863L11.0302 29.4984L10.9404 29.4097L10.8515 29.3201L10.7634 29.2294L10.6761 29.138L10.5897 29.0455L10.5044 28.9523L10.4198 28.858L10.3362 28.7629L10.2536 28.6669L10.1717 28.5701L10.091 28.4724L10.0111 28.3737L9.93228 28.2744L9.85437 28.1741L9.77746 28.073L9.70155 27.9711L9.62655 27.8684L9.55264 27.7649L9.47982 27.6606L9.40792 27.5555L9.3371 27.4497L9.26733 27.3432L9.19862 27.2358L9.13095 27.1277L9.06437 27.0189L8.99886 26.9094L8.93444 26.7992L8.87112 26.6882L8.80889 26.5766L8.74778 26.4643L8.68779 26.3514L8.62892 26.2377L8.57118 26.1234L8.51459 26.0085L8.45914 25.893L8.40485 25.7769L8.35172 25.6601L8.29976 25.5428L8.24898 25.4249L8.19938 25.3064L8.15096 25.1874L8.10375 25.0678L8.05773 24.9476L8.01292 24.827L7.96932 24.7059L7.92695 24.5842L7.88581 24.4621L7.84589 24.3394L7.80721 24.2164L7.76977 24.0929L7.73358 23.9689L7.69864 23.8445L7.66496 23.7197L7.63255 23.5944L7.60141 23.4689L7.57152 23.3429L7.54293 23.2165L7.51561 23.0898L7.48959 22.9628L7.46485 22.8354L7.44141 22.7077L7.41926 22.5797L7.39842 22.4514L7.37889 22.3229L7.36066 22.1941L7.34375 22.065L7.32816 21.9356L7.31389 21.8061L7.30093 21.6764L7.28931 21.5464L7.27902 21.4162L7.27005 21.2859L7.26242 21.1554L7.25612 21.0247L7.25117 20.894L7.24756 20.7631L7.24529 20.6321L7.24436 20.5009L7.24479 20.3697L7.24655 20.2384L7.24968 20.1072L7.25414 19.9758L7.25997 19.8444L7.26715 19.713L7.27568 19.5815L7.28557 19.4502L7.29681 19.3187L7.30941 19.1874L7.32337 19.0561L7.33868 18.9249L7.35535 18.7937L7.37338 18.6626L7.39276 18.5316L7.41351 18.4008L7.4356 18.2701L7.45905 18.1395L7.48386 18.0091L7.51002 17.8788L7.53753 17.7488L7.56641 17.6189L7.59662 17.4893L7.62819 17.3598L7.6611 17.2306L7.69536 17.1017L7.73096 16.973L7.76791 16.8446L7.8062 16.7165L7.84582 16.5887L7.88678 16.4612L7.92907 16.3341L7.97269 16.2073L8.01764 16.0808L8.06392 15.9547L8.11151 15.829L8.16041 15.7037L8.21064 15.5788L8.26218 15.4544L8.31502 15.3304L8.36917 15.2067L8.42462 15.0836L8.48136 14.961L8.5394 14.8388L8.59871 14.7172L8.65932 14.5961L8.72121 14.4754L8.78436 14.3554L8.84878 14.2359L8.91447 14.117L8.98141 13.9986L9.04961 13.8808L9.11905 13.7637L9.18974 13.6472L9.26166 13.5313L9.33482 13.416L9.40919 13.3014L9.48482 13.1874L9.56155 13.0742L9.63964 12.9616L9.71882 12.8497L9.79919 12.7385L9.88082 12.6282L9.96355 12.5184L10.0476 12.4095L10.1326 12.3014L10.2189 12.194L10.3063 12.0874L10.3948 11.9816L10.4846 11.8766L10.5754 11.7724L10.6673 11.6692L10.7604 11.5667L10.8545 11.4651L10.9497 11.3644L11.0461 11.2644L11.1435 11.1655L11.2419 11.0674L11.3415 10.9703L11.4421 10.8741L11.5437 10.7787L11.6464 10.6844L11.7501 10.591L11.8548 10.4986L11.9605 10.4072L12.0672 10.3167L12.1749 10.2273L12.2836 10.1388L12.3932 10.0514L12.5038 9.96499L12.6154 9.87963L12.7278 9.79536L12.8413 9.71209L12.9556 9.6299L13.0707 9.54881L13.1869 9.46881L13.3039 9.3899L13.4217 9.31218L13.5406 9.23545L13.6601 9.1599L13.7806 9.08548L13.9018 9.0122L14.0239 8.94008L14.1467 8.86911L14.2705 8.79931L14.3949 8.73068L14.5201 8.66326L14.6461 8.59702L14.7728 8.53199L14.9003 8.46816L15.0285 8.40555L15.1574 8.34417L15.287 8.28402L15.4173 8.22511L15.5483 8.16745L15.6799 8.11105L15.8122 8.05591L15.9451 8.00204L16.0786 7.94945L16.2127 7.89814L16.3475 7.84812L16.4828 7.7994L16.6187 7.75199L16.7552 7.70588L16.8922 7.66109L17.0296 7.61762L17.1677 7.57548L17.3063 7.53467L17.4454 7.4952L17.5848 7.45708L17.7248 7.4203L17.8653 7.38488L18.0062 7.35083L18.1475 7.31815L18.2892 7.28682L18.4313 7.25688L18.5737 7.22831L18.7166 7.20114L18.8598 7.17535L19.0034 7.15095L19.1473 7.12795L19.2915 7.10635L19.4359 7.08616L19.5806 7.06737L19.6346 7.06089ZM19.6957 12.2146L19.6541 8.70171L19.5355 8.71829L19.4079 8.73741L19.2803 8.7578L19.1535 8.77936L19.0265 8.80223L18.9001 8.82628L18.774 8.85156L18.6484 8.87802L18.523 8.90574L18.3979 8.93469L18.2732 8.96482L18.149 8.99615L18.0249 9.02873L17.9057 9.06127L17.7787 9.09736L17.6561 9.13345L17.534 9.17072L17.4125 9.20908L17.2914 9.24872L17.1706 9.28954L17.0505 9.33145L16.9309 9.37445L16.8118 9.41872L16.6933 9.46399L16.5752 9.51054L16.458 9.55808L16.3408 9.6069L16.2246 9.65672L16.1088 9.70763L15.9939 9.75963L15.8793 9.81281L15.7653 9.86708L15.6523 9.92227L15.5395 9.97872L15.4278 10.0361L15.3164 10.0947L15.206 10.1541L15.0958 10.2149L14.9867 10.2764L14.8784 10.339L14.7705 10.4027L14.6636 10.4674L14.5571 10.5332L14.4517 10.5997L14.3468 10.6674L14.2429 10.7361L14.1397 10.8056L14.0373 10.8763L13.9355 10.9479L13.8348 11.0202L13.7347 11.0937L13.6355 11.1681L13.5371 11.2434L13.4396 11.3194L13.3428 11.3966L13.2471 11.4745L13.1522 11.5534L13.058 11.6333L12.965 11.7137L12.8726 11.7953L12.7812 11.8776L12.6907 11.9607L12.6013 12.0446L12.5125 12.1295L12.4249 12.215L12.3382 12.3014L12.2523 12.3886L12.1675 12.4765L12.0836 12.5654L12.0006 12.6548L11.9187 12.745L11.8377 12.836L11.7576 12.9278L11.6789 13.0201L11.6009 13.1133L11.5239 13.2072L11.448 13.3016L11.3732 13.3967L11.2992 13.4927L11.2264 13.5892L11.1546 13.6864L11.0838 13.7842L11.0141 13.8826L10.9456 13.9815L10.878 14.0812L10.8115 14.1814L10.746 14.2823L10.6817 14.3835L10.6186 14.4854L10.5564 14.5881L10.4953 14.691L10.4354 14.7945L10.3765 14.8986L10.3188 15.003L10.2622 15.1081L10.2066 15.2137L10.1523 15.3195L10.099 15.4261L10.0469 15.533L9.99592 15.6402L9.9461 15.748L9.89737 15.8561L9.84982 15.9646L9.80337 16.0735L9.75819 16.1828L9.7141 16.2924L9.6711 16.4025L9.62928 16.5129L9.58873 16.6235L9.54919 16.7346L9.51101 16.8458L9.47382 16.9574L9.43792 17.0694L9.4031 17.1815L9.36955 17.2939L9.3371 17.4065L9.30592 17.5194L9.27583 17.6325L9.24696 17.7458L9.21928 17.8594L9.19279 17.9731L9.16747 18.0869L9.14333 18.201L9.12042 18.3152L9.09866 18.4294L9.0781 18.544L9.05874 18.6585L9.04055 18.7733L9.02358 18.8879L9.00777 19.0028L8.99317 19.1177L8.97975 19.2327L8.96752 19.3477L8.95649 19.4628L8.94664 19.5779L8.93799 19.6929L8.93052 19.8081L8.92422 19.9232L8.91912 20.0382L8.91522 20.1532L8.91248 20.2681L8.91093 20.383L8.91056 20.4979L8.91137 20.6126L8.91336 20.7273L8.91652 20.8418L8.92085 20.9562L8.92636 21.0705L8.93303 21.1847L8.94087 21.2986L8.94988 21.4125L8.96004 21.5262L8.97137 21.6396L8.98385 21.7529L8.99748 21.866L9.01227 21.9789L9.0282 22.0914L9.04528 22.2039L9.06349 22.3159L9.08284 22.4278L9.10333 22.5394L9.12494 22.6506L9.14769 22.7617L9.17154 22.8724L9.19653 22.9828L9.22261 23.0927L9.24982 23.2024L9.27813 23.3118L9.30755 23.4208L9.33801 23.5294L9.36964 23.6376L9.40228 23.7454L9.4361 23.8529L9.47091 23.96L9.50682 24.0665L9.54382 24.1726L9.58182 24.2784L9.62091 24.3836L9.6611 24.4884L9.70228 24.5927L9.74446 24.6965L9.78773 24.7999L9.83201 24.9027L9.87737 25.005L9.92364 25.1068L9.97101 25.208L10.0194 25.3087L10.0686 25.4089L10.119 25.5084L10.1703 25.6075L10.2226 25.706L10.2758 25.8038L10.33 25.9011L10.3852 25.9977L10.4413 26.0937L10.4984 26.1891L10.5564 26.2839L10.6153 26.378L10.6751 26.4714L10.7359 26.5644L10.7975 26.6564L10.8601 26.7479L10.9235 26.8386L10.9878 26.9287L11.053 27.0181L11.1191 27.1067L11.186 27.1946L11.2538 27.2819L11.3224 27.3684L11.3918 27.4541L11.4621 27.5391L11.5332 27.6234L11.6051 27.7067L11.6778 27.7895L11.7513 27.8714L11.8256 27.9525L11.9006 28.0328L11.9764 28.1124L12.0529 28.1911L12.1303 28.269L12.2083 28.3461L12.2871 28.4224L12.3666 28.4978L12.4467 28.5724L12.5277 28.6462L12.6093 28.719L12.6916 28.791L12.7746 28.8622L12.8582 28.9324L12.9425 29.0019L13.0274 29.0704L13.1129 29.138L13.1991 29.2047L13.2859 29.2706L13.3734 29.3355L13.4613 29.3995L13.5498 29.4626L13.639 29.5248L13.7287 29.5861L13.8191 29.6464L13.9099 29.7058L14.0013 29.7643L14.0932 29.8218L14.1856 29.8784L14.2785 29.934L14.3719 29.9886L14.4657 30.0423L14.5602 30.095L14.6549 30.1467L14.7503 30.1975L14.846 30.2474L14.9421 30.2961L15.0387 30.344L15.1358 30.3908L15.2332 30.4367L15.3309 30.4815L15.4292 30.5254L15.5276 30.5683L15.6266 30.6101L15.7258 30.651L15.8255 30.6908L15.9253 30.7296L16.0256 30.7674L16.1261 30.8043L16.2269 30.8401L16.328 30.8748L16.4295 30.9086L16.5311 30.9413L16.633 30.973L16.7352 31.0036L16.8376 31.0333L16.9401 31.0619L17.0429 31.0894L17.1459 31.1161L17.2491 31.1415L17.3525 31.166L17.456 31.1894L17.5597 31.2119L17.6636 31.2333L17.7675 31.2535L17.8716 31.2728L17.9757 31.2911L18.0801 31.3084L18.1845 31.3244L18.2889 31.3396L18.3935 31.3537L18.498 31.3668L18.6026 31.3788L18.7073 31.3898L18.812 31.3997L18.9167 31.4086L19.0215 31.4164L19.1262 31.4234L19.2308 31.4291L19.3355 31.4339L19.4402 31.4376L19.5447 31.4404L19.6492 31.442L19.7536 31.4426L19.858 31.4423L19.9623 31.4408L20.0665 31.4384L20.1705 31.435L20.2745 31.4305L20.3782 31.425L20.4818 31.4185L20.5853 31.411L20.6886 31.4024L20.7917 31.3929L20.8947 31.3824L20.9976 31.3708L21.1001 31.3583L21.2025 31.3447L21.3046 31.3303L21.4065 31.3147L21.5081 31.2982L21.6094 31.2807L21.7106 31.2622L21.8114 31.2427L21.9119 31.2224L22.0123 31.2009L22.1121 31.1785L22.2117 31.1553L22.311 31.1309L22.41 31.1057L22.5086 31.0795L22.6069 31.0524L22.7048 31.0243L22.8024 30.9953L22.8995 30.9654L22.9962 30.9344L23.0926 30.9026L23.1885 30.8699L23.2841 30.8363L23.3792 30.8017L23.4738 30.7663L23.568 30.7299L23.6617 30.6926L23.7551 30.6544L23.8479 30.6154L23.9402 30.5755L24.0321 30.5348L24.1234 30.4932L24.2143 30.4506L24.3046 30.4073L24.3943 30.3632L24.4837 30.318L24.5724 30.2722L24.6606 30.2254L24.7481 30.1779L24.8352 30.1295L24.9217 30.0804L25.0075 30.0304L25.0929 29.9795L25.1776 29.928L25.2616 29.8756L25.3453 29.8224L25.428 29.7686L25.5103 29.7139L25.592 29.6584L25.6729 29.6022L25.7531 29.5454L25.8329 29.4875L25.9118 29.4293L25.9902 29.3701L26.0679 29.3102L26.1446 29.2497L26.2211 29.1884L26.2967 29.1264L26.3714 29.0638L26.4457 29.0003L26.5191 28.9364L26.5917 28.8718L26.6639 28.8063L26.735 28.7404L26.8055 28.6738L26.8754 28.6065L26.9443 28.5387L27.0125 28.4702L27.0801 28.4011L27.1468 28.3314L27.2126 28.2611L27.2778 28.1902L27.3423 28.1187L27.4057 28.0468L27.4686 27.9741L27.5306 27.901L27.5916 27.8274L27.6521 27.753L27.7115 27.6784L27.7703 27.6031L27.8282 27.5274L27.8853 27.451L27.9415 27.3743L27.9967 27.2972L28.0514 27.2193L28.105 27.1412L28.1578 27.0625L28.2099 26.9834L28.2608 26.904L28.3112 26.824L28.3605 26.7435L28.4091 26.6628L28.4566 26.5816L28.5035 26.4999L28.5493 26.4182L28.5944 26.3356L28.6385 26.253L28.6815 26.17L28.724 26.0864L28.7653 26.0029L28.8059 25.9185L28.8454 25.8344L28.8843 25.7494L28.9219 25.6646L28.9589 25.5791L28.9949 25.4936L29.0299 25.4078L29.0641 25.3216L29.0974 25.2352L29.1295 25.1487L29.1611 25.0617L29.1915 24.9746L29.221 24.8874L29.2496 24.7998L29.2774 24.712L29.3042 24.6241L29.33 24.5361L29.3549 24.4477L29.3788 24.3594L29.4019 24.2707L29.424 24.182L29.4452 24.0933L29.4655 24.0041L29.4847 23.915L29.5032 23.8258L29.5206 23.7366L29.5371 23.6473L29.5526 23.5575L29.5673 23.4682L29.581 23.3785L29.5937 23.2888L29.6055 23.1993L29.6165 23.1095L29.6265 23.0195L29.6355 22.9302L29.6436 22.8401L29.6508 22.7504L29.657 22.6608L29.6624 22.571L29.6667 22.4814L29.6702 22.3918L29.6727 22.302L29.6743 22.2127L29.675 22.1231L29.6747 22.0337L29.6736 21.9444L29.6716 21.8554L29.6686 21.7662L29.6646 21.6772L29.6598 21.5885L29.6541 21.4996L29.6475 21.411L29.64 21.3228L29.6315 21.2344L29.6222 21.1464L29.6119 21.0584L29.6008 20.9707L29.5888 20.8832L29.5759 20.7957L29.5621 20.7086L29.5475 20.6218L29.5319 20.5352L29.5155 20.4488L29.4981 20.3624L29.4799 20.2765L29.4609 20.191L29.441 20.1055L29.4202 20.0203L29.3986 19.9357L29.3761 19.8509L29.3528 19.7668L29.3286 19.6828L29.3036 19.5994L29.2778 19.516L29.2511 19.433L29.2236 19.3505L29.1954 19.2684L29.1661 19.1863L29.1363 19.1049L29.1055 19.0237L29.0739 18.9431L29.0415 18.8626L29.0084 18.7825L28.9745 18.7032L28.9396 18.6239L28.9042 18.5453L28.8679 18.4671L28.8308 18.3891L28.7929 18.3115L28.7545 18.2347L28.715 18.1581L28.675 18.0822L28.6342 18.0067L28.5926 17.9314L28.5504 17.8569L28.5073 17.7827L28.4635 17.7092L28.419 17.6359L28.374 17.5634L28.328 17.4912L28.2815 17.4197L28.2343 17.3487L28.1864 17.2783L28.1376 17.2082L28.0884 17.1388L28.0385 17.0701L27.9878 17.0016L27.9366 16.934L27.8846 16.8668L27.8323 16.8004L27.779 16.7343L27.7252 16.6689L27.6707 16.6041L27.6157 16.5398L27.5602 16.4764L27.5038 16.4133L27.4471 16.351L27.3896 16.2892L27.3318 16.2283L27.2731 16.1676L27.2141 16.1079L27.1543 16.0485L27.0941 15.9901L27.0335 15.9323L26.9722 15.875L26.9103 15.8184L26.8479 15.7625L26.7851 15.7074L26.7215 15.6526L26.658 15.599L26.5935 15.5456L26.5287 15.4932L26.4635 15.4414L26.3976 15.3902L26.3315 15.3398L26.265 15.2903L26.1977 15.2412L26.13 15.1927L26.0623 15.1454L25.9936 15.0984L25.9251 15.0524L25.8559 15.007L25.7863 14.9623L25.7162 14.9183L25.646 14.8752L25.5751 14.8326L25.5041 14.791L25.4325 14.7499L25.3609 14.7098L25.2887 14.6704L25.2162 14.6315L25.1434 14.5935L25.0704 14.5564L24.9969 14.5199L24.9231 14.4842L24.8492 14.4493L24.7751 14.4152L24.7002 14.3816L24.6256 14.3491L24.5506 14.3173L24.4751 14.2861L24.3995 14.2558L24.3239 14.2264L24.2479 14.1976L24.1715 14.1695L24.0952 14.1424L24.0185 14.116L23.9415 14.0904L23.8647 14.0655L23.7875 14.0415L23.7104 14.0183L23.6326 13.9957L23.555 13.9741L23.4773 13.9532L23.3994 13.9331L23.3214 13.9137L23.243 13.8952L23.1648 13.8774L23.0866 13.8605L23.0081 13.8444L22.9294 13.8289L22.8511 13.8144L22.7723 13.8006L22.6936 13.7876L22.6146 13.7754L22.5361 13.764L22.4569 13.7533L22.3783 13.7435L22.2994 13.7344L22.2205 13.7262L22.1416 13.7187L22.0626 13.712L21.984 13.7061L21.9049 13.701L21.8262 13.6966L21.7476 13.6931L21.6686 13.6903L21.5901 13.6883L21.5115 13.6871L21.4331 13.6866L21.3795 13.6868L21.4201 17.119L21.4444 17.1191L21.4895 17.1197L21.5346 17.1208L21.5799 17.1223L21.6252 17.1244L21.6705 17.1268L21.7159 17.1297L21.7614 17.1332L21.8068 17.1371L21.8524 17.1414L21.8979 17.1463L21.9435 17.1515L21.9891 17.1574L22.0346 17.1636L22.0803 17.1704L22.1259 17.1776L22.1715 17.1854L22.2171 17.1935L22.2627 17.2023L22.3083 17.2114L22.3538 17.2211L22.3994 17.2312L22.4449 17.2418L22.4903 17.2529L22.5357 17.2644L22.5811 17.2765L22.6264 17.2891L22.6716 17.3021L22.7168 17.3156L22.7619 17.3296L22.8069 17.3442L22.8519 17.3592L22.8967 17.3746L22.9415 17.3905L22.9862 17.407L23.0307 17.4239L23.0752 17.4413L23.1196 17.4592L23.1637 17.4775L23.2078 17.4964L23.2518 17.5157L23.2956 17.5355L23.3394 17.5558L23.3829 17.5766L23.4263 17.5978L23.4696 17.6195L23.5126 17.6418L23.5555 17.6644L23.5982 17.6876L23.6407 17.7113L23.6831 17.7354L23.7253 17.7599L23.7672 17.7849L23.809 17.8104L23.8505 17.8364L23.8919 17.8629L23.933 17.8897L23.9739 17.9171L24.0146 17.945L24.0551 17.9733L24.0953 18.002L24.1353 18.0312L24.175 18.0608L24.2145 18.0909L24.2536 18.1214L24.2926 18.1524L24.3313 18.1839L24.3696 18.2157L24.4078 18.2481L24.4456 18.2808L24.4832 18.314L24.5205 18.3476L24.5574 18.3817L24.594 18.4162L24.6303 18.4511L24.6664 18.4864L24.702 18.5222L24.7374 18.5584L24.7725 18.5949L24.8071 18.6319L24.8415 18.6694L24.8755 18.7072L24.9092 18.7454L24.9425 18.784L24.9754 18.823L25.008 18.8624L25.0402 18.9022L25.072 18.9424L25.1035 18.9829L25.1346 19.0239L25.1653 19.0652L25.1955 19.1069L25.2254 19.1489L25.2549 19.1914L25.284 19.2342L25.3126 19.2774L25.3409 19.3208L25.3688 19.3647L25.3962 19.4089L25.4232 19.4534L25.4497 19.4984L25.4758 19.5435L25.5015 19.5891L25.5267 19.635L25.5515 19.6812L25.5759 19.7277L25.5997 19.7745L25.6232 19.8216L25.6461 19.8691L25.6686 19.9169L25.6905 19.9649L25.7121 20.0133L25.7332 20.0619L25.7537 20.1108L25.7738 20.16L25.7934 20.2094L25.8125 20.2592L25.8311 20.3092L25.8492 20.3594L25.8667 20.41L25.8838 20.4607L25.9004 20.5117L25.9164 20.563L25.9319 20.6144L25.9469 20.6662L25.9614 20.7182L25.9754 20.7703L25.9888 20.8226L26.0016 20.8753L26.014 20.9281L26.0258 20.981L26.0371 21.0343L26.0478 21.0876L26.0579 21.1411L26.0675 21.1949L26.0766 21.2488L26.0852 21.3028L26.0931 21.3571L26.1005 21.4114L26.1073 21.466L26.1136 21.5207L26.1193 21.5755L26.1244 21.6304L26.1289 21.6855L26.1329 21.7408L26.1363 21.7961L26.1391 21.8515L26.1413 21.9071L26.143 21.9627L26.144 22.0184L26.1445 22.0743L26.1444 22.1301L26.1437 22.1861L26.1425 22.2422L26.1405 22.2983L26.1381 22.3544L26.135 22.4106L26.1314 22.4669L26.1271 22.5232L26.1222 22.5795L26.1167 22.6359L26.1107 22.6923L26.104 22.7486L26.0967 22.8051L26.0889 22.8615L26.0805 22.9179L26.0714 22.9743L26.0616 23.0306L26.0514 23.087L26.0405 23.1434L26.029 23.1996L26.0168 23.2559L26.0041 23.3121L25.9908 23.3683L25.9768 23.4244L25.9623 23.4804L25.9472 23.5364L25.9314 23.5923L25.915 23.648L25.898 23.7037L25.8805 23.7594L25.8623 23.8148L25.8435 23.8703L25.8241 23.9255L25.804 23.9806L25.7834 24.0357L25.7622 24.0905L25.7404 24.1454L25.7179 24.1999L25.6949 24.2544L25.6713 24.3086L25.647 24.3628L25.6222 24.4167L25.5967 24.4704L25.5706 24.5241L25.5441 24.5774L25.5168 24.6306L25.489 24.6836L25.4606 24.7364L25.4315 24.7889L25.402 24.8413L25.3718 24.8934L25.341 24.9453L25.3097 24.9968L25.2777 25.0483L25.2453 25.0994L25.2122 25.1502L25.1785 25.2008L25.1443 25.2511L25.1095 25.3012L25.0741 25.3509L25.0381 25.4004L25.0016 25.4495L24.9646 25.4984L24.9269 25.5469L24.8887 25.5952L24.85 25.6431L24.8107 25.6906L24.7709 25.7379L24.7306 25.7848L24.6895 25.8314L24.6481 25.8775L24.6061 25.9234L24.5635 25.9689L24.5205 26.014L24.4769 26.0588L24.4328 26.1032L24.3882 26.1471L24.3431 26.1907L24.2974 26.2339L24.2512 26.2766L24.2045 26.319L24.1574 26.361L24.1097 26.4025L24.0616 26.4436L24.0129 26.4843L23.9637 26.5245L23.9141 26.5644L23.864 26.6036L23.8135 26.6425L23.7625 26.681L23.7109 26.719L23.659 26.7564L23.6066 26.7934L23.5537 26.8301L23.5004 26.8661L23.4466 26.9017L23.3925 26.9367L23.3378 26.9714L23.2827 27.0054L23.2273 27.039L23.1714 27.072L23.1151 27.1045L23.0584 27.1365L23.0012 27.168L22.9437 27.199L22.8858 27.2294L22.8276 27.2593L22.7688 27.2885L22.7098 27.3174L22.6504 27.3455L22.5906 27.3732L22.5305 27.4003L22.4699 27.4267L22.4091 27.4527L22.3479 27.4781L22.2864 27.5028L22.2245 27.527L22.1623 27.5506L22.0997 27.5736L22.0369 27.5961L21.9738 27.6179L21.9104 27.6391L21.8466 27.6597L21.7826 27.6796L21.7184 27.699L21.6537 27.7178L21.5889 27.7359L21.5238 27.7534L21.4585 27.7703L21.3928 27.7865L21.3269 27.8021L21.2608 27.8171L21.1945 27.8314L21.1279 27.8451L21.0611 27.8581L20.9941 27.8704L20.9269 27.8822L20.8595 27.8933L20.7919 27.9036L20.7241 27.9134L20.6562 27.9224L20.588 27.9309L20.5197 27.9386L20.4513 27.9456L20.3826 27.9521L20.3139 27.9577L20.245 27.9628L20.1759 27.9671L20.1068 27.9708L20.0375 27.9738L19.9682 27.9761L19.8986 27.9776L19.8291 27.9785L19.7595 27.9788L19.6897 27.9784L19.6199 27.9772L19.55 27.9753L19.4801 27.9727L19.4101 27.9694L19.34 27.9654L19.2699 27.9608L19.1998 27.9554L19.1297 27.9494L19.0596 27.9425L18.9895 27.9351L18.9193 27.9268L18.8492 27.9179L18.779 27.9083L18.7089 27.898L18.6388 27.8869L18.5688 27.8752L18.4988 27.8627L18.4289 27.8495L18.359 27.8357L18.2892 27.8211L18.2195 27.8058L18.1498 27.7897L18.0803 27.773L18.0107 27.7556L17.9414 27.7374L17.8722 27.7185L17.803 27.699L17.7341 27.6787L17.6652 27.6577L17.5965 27.636L17.5279 27.6136L17.4595 27.5905L17.3913 27.5667L17.3232 27.5422L17.2553 27.5169L17.1876 27.491L17.1201 27.4644L17.0528 27.437L16.9857 27.409L16.9189 27.3803L16.8523 27.3508L16.7858 27.3207L16.7197 27.2899L16.6537 27.2584L16.5881 27.2262L16.5227 27.1933L16.4576 27.1597L16.3928 27.1254L16.3283 27.0905L16.264 27.0549L16.2001 27.0186L16.1364 26.9816L16.0731 26.944L16.0101 26.9057L15.9475 26.8667L15.8851 26.8271L15.8231 26.7868L15.7615 26.7458L15.7002 26.7042L15.6394 26.6619L15.5788 26.619L15.5186 26.5754L15.4589 26.5312L15.3996 26.4864L15.3406 26.4409L15.2821 26.3947L15.224 26.348L15.1663 26.3006L15.109 26.2526L15.0522 26.204L14.9958 26.1547L14.9399 26.1049L14.8845 26.0544L14.8295 26.0034L14.7749 25.9517L14.7209 25.8994L14.6673 25.8466L14.6143 25.7932L14.5617 25.7392L14.5096 25.6845L14.4581 25.6294L14.4071 25.5736L14.3566 25.5174L14.3066 25.4605L14.2573 25.4031L14.2084 25.3452L14.16 25.2866L14.1123 25.2275L14.0651 25.168L14.0185 25.1079L13.9724 25.0473L13.9269 24.9861L13.8821 24.9244L13.8378 24.8623L13.7941 24.7995L13.751 24.7364L13.7086 24.6727L13.6667 24.6085L13.6256 24.5439L13.5849 24.4788L13.545 24.4133L13.5056 24.3472L13.467 24.2807L13.429 24.2137L13.3916 24.1464L13.3549 24.0785L13.3189 24.0103L13.2836 23.9415L13.2488 23.8724L13.2148 23.803L13.1816 23.733L13.1489 23.6627L13.117 23.592L13.0858 23.5209L13.0553 23.4494L13.0255 23.3775L12.9964 23.3053L12.968 23.2327L12.9404 23.1597L12.9136 23.0864L12.8874 23.0128L12.8619 22.9389L12.8372 22.8646L12.8133 22.79L12.7901 22.7151L12.7676 22.6399L12.7459 22.5644L12.725 22.4885L12.7049 22.4124L12.6855 22.3361L12.6669 22.2594L12.6491 22.1826L12.632 22.1054L12.6157 22.0281L12.6003 21.9504L12.5856 21.8726L12.5716 21.7945L12.5586 21.7163L12.5463 21.6378L12.5347 21.5591L12.524 21.4803L12.5142 21.4012L12.5051 21.322L12.4968 21.2425L12.4894 21.163L12.4827 21.0833L12.4769 21.0034L12.4719 20.9234L12.4677 20.8434L12.4644 20.7632L12.4618 20.6828L12.4602 20.6024L12.4594 20.5219L12.4593 20.4413L12.4601 20.3605L12.4618 20.2798L12.4643 20.199L12.4676 20.1181L12.4718 20.0372L12.4768 19.9563L12.4826 19.8753L12.4894 19.7943L12.4969 19.7133L12.5053 19.6323L12.5146 19.5513L12.5246 19.4703L12.5356 19.3894L12.5474 19.3084L12.56 19.2275L12.5736 19.1467L12.5878 19.0659L12.603 18.9852L12.6191 18.9045L12.636 18.824L12.6537 18.7435L12.6723 18.6632L12.6917 18.583L12.712 18.5028L12.7332 18.4228L12.7552 18.343L12.778 18.2633L12.8016 18.1836L12.8262 18.1043L12.8516 18.025L12.8777 17.9459L12.9048 17.8671L12.9327 17.7884L12.9615 17.7099L12.991 17.6316L13.0215 17.5536L13.0527 17.4758L13.0848 17.3982L13.1177 17.3209L13.1515 17.2438L13.1861 17.167L13.2215 17.0904L13.2577 17.0142L13.2947 16.9383L13.3326 16.8625L13.3713 16.7872L13.4108 16.7122L13.4511 16.6374L13.4923 16.5631L13.5342 16.489L13.5769 16.4153L13.6205 16.342L13.6648 16.269L13.7099 16.1964L13.7559 16.1242L13.8026 16.0523L13.8501 15.9808L13.8984 15.9098L13.9475 15.8392L13.9973 15.769L14.0479 15.6993L14.0993 15.6299L14.1514 15.561L14.2043 15.4926L14.2579 15.4246L14.3124 15.3572L14.3676 15.2901L14.4234 15.2236L14.48 15.1575L14.5374 15.092L14.5955 15.027L14.6543 14.9624L14.7138 14.8985L14.7741 14.8351L14.8351 14.7722L14.8967 14.7098L14.9591 14.648L15.0222 14.5867L15.0859 14.5261L15.1504 14.466L15.2155 14.4064L15.2812 14.3475L15.3476 14.2892L15.4148 14.2315L15.4826 14.1744L15.551 14.1179L15.62 14.0621L15.6897 14.0068L15.76 13.9523L15.831 13.8984L15.9026 13.8451L15.9747 13.7924L16.0476 13.7405L16.1209 13.6893L16.1949 13.6386L16.2696 13.5887L16.3446 13.5395L16.4204 13.4911L16.4967 13.4433L16.5736 13.3962L16.651 13.3498L16.7289 13.3042L16.8075 13.2593L16.8865 13.2151L16.966 13.1716L17.0461 13.129L17.1266 13.0871L17.2077 13.0459L17.2893 13.0055L17.3714 12.9659L17.4539 12.9271L17.5369 12.889L17.6204 12.8517L17.7043 12.8153L17.7887 12.7795L17.8736 12.7446L17.9587 12.7106L18.0445 12.6774L18.1306 12.6449L18.217 12.6133L18.3039 12.5825L18.3913 12.5525L18.4789 12.5234L18.567 12.4952L18.6554 12.4677L18.7442 12.4412L18.8333 12.4154L18.9227 12.3906L19.0126 12.3666L19.1026 12.3434L19.1931 12.3212L19.2838 12.2998L19.3749 12.2794L19.4662 12.2597L19.5578 12.241L19.6496 12.2232L19.6957 12.2146ZM20.8247 18.8149L19.7769 19.0653L19.7154 13.8748L19.666 13.8859L19.5916 13.9034L19.5174 13.9217L19.4436 13.9406L19.37 13.9603L19.2968 13.9806L19.2236 14.0018L19.1512 14.0234L19.0786 14.046L19.0068 14.069L18.9349 14.0929L18.8635 14.1174L18.7924 14.1426L18.7215 14.1684L18.6514 14.1949L18.5813 14.2222L18.5116 14.25L18.4423 14.2784L18.3731 14.3077L18.3048 14.3374L18.2366 14.3679L18.1689 14.3989L18.1014 14.4307L18.0345 14.463L17.9677 14.496L17.9017 14.5295L17.836 14.5637L17.7707 14.5985L17.7059 14.6339L17.6415 14.6699L17.5775 14.7065L17.5142 14.7436L17.4508 14.7815L17.3883 14.8198L17.3263 14.8587L17.2646 14.8982L17.2034 14.9383L17.1427 14.9789L17.0826 15.0201L17.0228 15.0617L16.9637 15.1039L16.9049 15.1467L16.8467 15.1901L16.7891 15.2339L16.7319 15.2783L16.6754 15.323L16.6194 15.3684L16.5637 15.4143L16.5086 15.4607L16.4543 15.5074L16.4004 15.5548L16.347 15.6025L16.2942 15.6508L16.2419 15.6996L16.1903 15.7488L16.1392 15.7984L16.0886 15.8485L16.0386 15.899L15.9893 15.95L15.9406 16.0013L15.8922 16.0533L15.8446 16.1054L15.7976 16.158L15.7512 16.2111L15.7055 16.2644L15.6602 16.3183L15.6157 16.3723L15.5716 16.427L15.5284 16.4818L15.4856 16.5372L15.4435 16.5929L15.402 16.6488L15.3611 16.7051L15.3209 16.7617L15.2813 16.8188L15.2423 16.8761L15.204 16.9338L15.1664 16.9916L15.1294 17.0498L15.0929 17.1084L15.0573 17.1672L15.0221 17.2264L14.9877 17.2856L14.9539 17.3454L14.9207 17.4053L14.8884 17.4654L14.8566 17.5257L14.8255 17.5864L14.7949 17.6474L14.7652 17.7083L14.736 17.7697L14.7076 17.8312L14.6798 17.8929L14.6526 17.9548L14.6262 18.017L14.6005 18.0792L14.5754 18.1417L14.551 18.2044L14.5272 18.2672L14.5042 18.33L14.4818 18.3932L14.4601 18.4564L14.4391 18.5198L14.4187 18.5833L14.3991 18.647L14.3801 18.7107L14.3619 18.7744L14.3443 18.8384L14.3273 18.9025L14.3111 18.9666L14.2956 19.0308L14.2806 19.0951L14.2665 19.1594L14.253 19.2239L14.2402 19.2883L14.228 19.3527L14.2166 19.4174L14.2058 19.4818L14.1957 19.5464L14.1863 19.6111L14.1776 19.6755L14.1696 19.7403L14.1622 19.8047L14.1555 19.8694L14.1495 19.9341L14.1441 19.9985L14.1395 20.0631L14.1355 20.1276L14.1321 20.192L14.1295 20.2564L14.1275 20.3206L14.1262 20.385L14.1255 20.4492L14.1256 20.5133L14.1262 20.5773L14.1276 20.6413L14.1296 20.7051L14.1322 20.7688L14.1355 20.8324L14.1395 20.8959L14.1441 20.9593L14.1494 21.0225L14.1553 21.0856L14.1618 21.1487L14.169 21.2114L14.1768 21.2742L14.1853 21.3365L14.1945 21.399L14.2042 21.4611L14.2146 21.5231L14.2256 21.585L14.2372 21.6465L14.2495 21.708L14.2623 21.7691L14.2758 21.8302L14.2899 21.8909L14.3046 21.9515L14.3199 22.0117L14.3359 22.072L14.3524 22.1317L14.3695 22.1914L14.3872 22.2507L14.4055 22.3099L14.4244 22.3687L14.4438 22.4272L14.4639 22.4856L14.4846 22.5436L14.5057 22.6013L14.5275 22.6588L14.5498 22.716L14.5727 22.7728L14.5962 22.8294L14.6201 22.8855L14.6447 22.9415L14.6698 22.9972L14.6955 23.0524L14.7216 23.1074L14.7483 23.1619L14.7756 23.2164L14.8033 23.2702L14.8316 23.3237L14.8604 23.377L14.8897 23.4298L14.9196 23.4824L14.9498 23.5345L14.9806 23.5862L15.012 23.6376L15.0437 23.6886L15.076 23.7392L15.1088 23.7894L15.142 23.8393L15.1757 23.8888L15.2098 23.9376L15.2445 23.9864L15.2796 24.0345L15.315 24.0823L15.3511 24.1297L15.3875 24.1766L15.4243 24.2231L15.4616 24.2692L15.4993 24.3149L15.5373 24.36L15.5759 24.4048L15.6148 24.4492L15.6541 24.493L15.694 24.5364L15.734 24.5793L15.7746 24.6219L15.8155 24.6639L15.8566 24.7054L15.8984 24.7465L15.9404 24.7872L15.9827 24.8274L16.0255 24.867L16.0686 24.9062L16.112 24.9449L16.1557 24.9831L16.1998 25.0208L16.2442 25.0581L16.2889 25.0948L16.334 25.1311L16.3795 25.1668L16.425 25.202L16.471 25.2367L16.5173 25.271L16.5638 25.3047L16.6106 25.3379L16.6577 25.3706L16.7051 25.4028L16.7527 25.4344L16.8005 25.4655L16.8486 25.4962L16.8972 25.5264L16.9457 25.5558L16.9946 25.5849L17.0437 25.6134L17.0929 25.6414L17.1424 25.6688L17.1923 25.6958L17.2422 25.7222L17.2923 25.748L17.3426 25.7733L17.3932 25.7981L17.4437 25.8223L17.4947 25.846L17.5457 25.8692L17.5968 25.8917L17.6483 25.9138L17.6998 25.9354L17.7514 25.9564L17.8032 25.9768L17.8551 25.9966L17.9073 26.016L17.9593 26.0348L18.0117 26.0531L18.064 26.0707L18.1165 26.0879L18.1691 26.1045L18.2218 26.1206L18.2746 26.1361L18.3274 26.1511L18.3804 26.1654L18.4334 26.1794L18.4864 26.1926L18.5395 26.2054L18.5926 26.2176L18.6457 26.2293L18.699 26.2404L18.7523 26.251L18.8056 26.2611L18.8588 26.2705L18.9122 26.2795L18.9655 26.2879L19.0189 26.2958L19.0721 26.3031L19.1255 26.3098L19.1787 26.3161L19.2321 26.3218L19.2854 26.3269L19.3386 26.3315L19.3918 26.3356L19.4449 26.3392L19.4981 26.3422L19.5511 26.3446L19.604 26.3466L19.6571 26.348L19.7098 26.3489L19.7626 26.3493L19.8153 26.3491L19.8678 26.3484L19.9205 26.3472L19.9729 26.3454L20.0251 26.3433L20.0773 26.3404L20.1296 26.3372L20.1814 26.3334L20.2333 26.3291L20.2849 26.3243L20.3365 26.319L20.388 26.3131L20.4392 26.3068L20.4905 26.3L20.5414 26.2926L20.5921 26.2848L20.6429 26.2765L20.6934 26.2677L20.7436 26.2584L20.7938 26.2486L20.8438 26.2384L20.8935 26.2276L20.9429 26.2164L20.9924 26.2047L21.0415 26.1925L21.0905 26.18L21.1392 26.1669L21.1876 26.1534L21.2361 26.1393L21.2841 26.1248L21.3317 26.1099L21.3796 26.0944L21.4268 26.0786L21.4739 26.0624L21.5207 26.0457L21.5673 26.0285L21.6137 26.0109L21.6598 25.9929L21.7055 25.9744L21.7511 25.9556L21.7964 25.9363L21.8415 25.9165L21.886 25.8964L21.9306 25.8759L21.9746 25.855L22.0184 25.8336L22.062 25.8119L22.1051 25.7898L22.1481 25.7673L22.1907 25.7443L22.233 25.721L22.2749 25.6974L22.3166 25.6733L22.358 25.6488L22.3989 25.624L22.4395 25.5988L22.4799 25.5733L22.5199 25.5474L22.5596 25.5212L22.5989 25.4946L22.6379 25.4676L22.6765 25.4404L22.7147 25.4128L22.7526 25.3848L22.7902 25.3565L22.8274 25.3279L22.8642 25.299L22.9007 25.2697L22.9367 25.2403L22.9725 25.2104L23.0077 25.1803L23.0426 25.1498L23.0773 25.1191L23.1115 25.088L23.1453 25.0567L23.1785 25.0252L23.2116 24.9933L23.2443 24.9611L23.2765 24.9287L23.3084 24.8961L23.3397 24.8631L23.3707 24.83L23.4015 24.7964L23.4316 24.7629L23.4615 24.7289L23.4908 24.6947L23.5197 24.6604L23.5485 24.6257L23.5765 24.591L23.6043 24.5559L23.6316 24.5207L23.6585 24.4853L23.685 24.4495L23.711 24.4138L23.7366 24.3776L23.7619 24.3414L23.7866 24.3051L23.811 24.2684L23.835 24.2316L23.8584 24.1947L23.8815 24.1576L23.9041 24.1204L23.9263 24.0829L23.9481 24.0454L23.9694 24.0076L23.9903 23.9698L24.0107 23.9317L24.0307 23.8937L24.0503 23.8554L24.0695 23.8171L24.0882 23.7786L24.1065 23.7399L24.1243 23.7013L24.1416 23.6624L24.1586 23.6236L24.1751 23.5845L24.1911 23.5455L24.2068 23.5062L24.2219 23.4672L24.2367 23.4275L24.2509 23.3885L24.2648 23.3489L24.2783 23.3093L24.2912 23.2698L24.3037 23.2302L24.3158 23.1906L24.3276 23.1506L24.3386 23.1112L24.3496 23.0711L24.3598 23.0316L24.3697 22.9916L24.3792 22.9516L24.3882 22.9119L24.3967 22.8723L24.4049 22.8321L24.4126 22.7924L24.4199 22.7523L24.4267 22.7126L24.4332 22.6728L24.4392 22.6329L24.4447 22.593L24.4498 22.5532L24.4545 22.5135L24.4588 22.474L24.4626 22.4341L24.4661 22.3945L24.4691 22.3549L24.4716 22.3154L24.4738 22.2759L24.4755 22.2365L24.4768 22.1974L24.4777 22.1579L24.4783 22.1185L24.4784 22.0795L24.478 22.0405L24.4773 22.0016L24.4761 21.9628L24.4746 21.9238L24.4725 21.8855L24.4702 21.8464L24.4675 21.8084L24.4643 21.7701L24.4607 21.7315L24.4567 21.6934L24.4525 21.6557L24.4476 21.6174L24.4425 21.58L24.437 21.5423L24.4312 21.5051L24.4248 21.4675L24.4182 21.4303L24.4112 21.3934L24.4038 21.3565L24.396 21.3196L24.3878 21.2832L24.3794 21.2467L24.3705 21.2105L24.3613 21.1746L24.3515 21.1384L24.3417 21.103L24.3314 21.0672L24.3207 21.032L24.3097 20.9968L24.2984 20.9619L24.2866 20.9271L24.2745 20.8924L24.2623 20.8582L24.2495 20.8241L24.2365 20.7899L24.2231 20.7563L24.2094 20.7224L24.1955 20.6894L24.181 20.6561L24.1665 20.6233L24.1515 20.5907L24.1362 20.5582L24.1206 20.526L24.1047 20.494L24.0885 20.4622L24.0721 20.4307L24.0553 20.3994L24.0383 20.3684L24.0209 20.3376L24.0032 20.3071L23.9854 20.2768L23.9672 20.2468L23.9486 20.2169L23.9299 20.1875L23.9109 20.1583L23.8916 20.1293L23.8721 20.1004L23.8524 20.0721L23.8323 20.0438L23.812 20.0159L23.7915 19.9883L23.7706 19.9609L23.7497 19.9338L23.7284 19.9069L23.7069 19.8804L23.6852 19.8542L23.6633 19.8282L23.6411 19.8024L23.6188 19.7771L23.5962 19.752L23.5734 19.7272L23.5504 19.7025L23.5272 19.6784L23.5037 19.6544L23.4801 19.6307L23.4564 19.6074L23.4324 19.5844L23.4083 19.5617L23.3837 19.5392L23.3594 19.5171L23.3346 19.4952L23.3098 19.4737L23.2847 19.4524L23.2596 19.4316L23.2342 19.411L23.2087 19.3907L23.1831 19.3707L23.1573 19.351L23.1314 19.3317L23.1053 19.3126L23.079 19.2939L23.0527 19.2755L23.0263 19.2574L22.9997 19.2396L22.973 19.2222L22.9461 19.205L22.9193 19.1882L22.8921 19.1716L22.865 19.1554L22.8378 19.1396L22.8105 19.1241L22.7829 19.1088L22.7555 19.0939L22.7279 19.0793L22.7002 19.065L22.6726 19.0511L22.6445 19.0374L22.6167 19.0241L22.5887 19.0112L22.5607 18.9984L22.5326 18.9861L22.5044 18.974L22.4764 18.9624L22.448 18.951L22.4196 18.9399L22.3914 18.9292L22.363 18.9187L22.3346 18.9086L22.3062 18.8988L22.2777 18.8893L22.2494 18.8802L22.2208 18.8713L22.1923 18.8627L22.1639 18.8545L22.1352 18.8466L22.1068 18.8391L22.0783 18.8318L22.0497 18.8248L22.0212 18.8182L21.9927 18.8118L21.9642 18.8058L21.9357 18.8001L21.9074 18.7946L21.879 18.7895L21.8505 18.7847L21.8223 18.7803L21.7937 18.7761L21.7656 18.7722L21.7373 18.7685L21.7091 18.7653L21.6811 18.7623L21.6529 18.7596L21.6249 18.7572L21.5969 18.7551L21.569 18.7533L21.5411 18.7517L21.5133 18.7505L21.4857 18.7496L21.458 18.7489L21.4305 18.7485L21.4029 18.7484L21.3756 18.7487L21.3482 18.7492L21.321 18.7499L21.2938 18.751L21.2669 18.7523L21.2398 18.7539L21.2131 18.7557L21.1864 18.7578L21.1597 18.7603L21.1333 18.7629L21.1067 18.7658L21.0805 18.769L21.0544 18.7724L21.0284 18.7762L21.0024 18.7802L20.9766 18.7844L20.9509 18.7888L20.9256 18.7935L20.9 18.7985L20.8748 18.8037L20.8496 18.8092L20.8247 18.8149Z" fill="#E0E0E0"/>
</svg>
