<svg width="720" height="433" viewBox="0 0 720 433" fill="none" xmlns="http://www.w3.org/2000/svg">
<path d="M1010.73 356.824C985.972 198.717 747.054 99.4284 568.055 102.321C361.778 105.674 284.91 243.935 127.652 202.762C-15.8555 165.235 -25.1573 30.8344 -130.615 10.1601C-227.533 -8.83567 -380.177 73.1927 -630.011 476.765" stroke="url(#paint0_linear_289_2971)" stroke-miterlimit="10"/>
<path d="M-617.87 494.51C-371.065 96.7678 -218.354 11.599 -120.087 26.984C-47.2549 38.4792 -18.7977 103.625 38.4544 154.378C67.0349 180.507 102.104 199.598 140.514 209.936C266.327 243.89 340.696 167.021 474.694 133.549C508.848 124.92 543.972 120.075 579.343 119.114C759.056 113.679 995.23 199.601 1023.63 351.93" stroke="url(#paint1_linear_289_2971)" stroke-miterlimit="10"/>
<path d="M-605.699 512.2C-361.923 120.316 -209.232 32.0345 -109.819 43.8371C-36.7425 52.5188 -6.64042 114.544 50.7119 162.702C79.9669 187.884 114.981 206.493 153.085 217.112C277.091 251.649 351.48 182.37 485.955 150.425C520.129 142.239 555.12 137.383 590.369 135.936C770.829 128.477 1004.23 200.487 1036.27 347.037" stroke="url(#paint2_linear_289_2971)" stroke-miterlimit="10"/>
<path d="M-593.558 529.836C-352.87 143.892 -200.111 52.525 -99.4358 60.6627C-26.0557 66.5851 5.57411 125.436 63.1144 171.026C92.9811 195.245 127.914 213.385 165.685 224.289C288.001 259.407 362.145 197.693 497.244 167.3C531.452 159.485 566.351 154.59 601.511 152.676C782.687 142.892 1013.31 201.292 1049 342.062" stroke="url(#paint3_linear_289_2971)" stroke-miterlimit="10"/>
<path d="M-581.416 547.608C-343.758 167.44 -191.048 73.0427 -89.0234 77.515C-15.4271 80.706 17.8764 136.381 75.575 179.322C106.075 202.591 140.989 220.28 178.489 231.464C299.114 267.163 373.103 213.041 508.883 184.174C543.057 176.806 577.789 171.908 612.771 169.524C794.691 157.416 1022.54 202.231 1061.9 337.223" stroke="url(#paint4_linear_289_2971)" stroke-miterlimit="10"/>
<path d="M-569.392 565.327C-334.675 190.99 -181.914 90.9127 -78.6112 94.3412C-4.87416 96.7123 30.1774 147.136 87.9773 187.647C119.095 209.924 153.989 227.161 191.205 238.64C310.14 274.921 383.914 228.39 520.172 201.078C554.337 194.083 588.95 189.154 623.796 186.32C806.459 171.778 1031.54 203.091 1074.54 332.331" stroke="url(#paint5_linear_289_2971)" stroke-miterlimit="10"/>
<path d="M-557.103 583.044C-325.563 214.566 -172.919 114.271 -68.2282 111.031C5.71487 109.087 42.5389 158.055 100.41 195.999C132.111 217.276 166.99 234.071 203.922 245.843C321.167 282.706 394.814 243.739 531.578 217.981C565.737 211.394 600.236 206.45 634.939 203.17C818.347 186.303 1040.65 203.923 1087.3 327.466" stroke="url(#paint6_linear_289_2971)" stroke-miterlimit="10"/>
<path d="M-544.962 600.761C-316.539 238.115 -163.886 134.735 -57.8151 128.021C16.285 123.236 54.956 168.728 112.841 204.296C145.1 224.553 179.978 240.897 216.638 252.937C332.163 290.409 405.684 259.061 542.983 234.774C574.93 229.157 609.04 223.749 646.081 219.882C830.262 200.609 1049.76 204.837 1100.05 322.546" stroke="url(#paint7_linear_289_2971)" stroke-miterlimit="10"/>
<path d="M-532.82 618.479C-307.368 261.691 -154.85 155.5 -47.4317 144.793C26.8563 137.413 67.4036 179.428 125.331 212.566C158.149 231.791 193.046 247.72 229.442 260.086C343.277 298.14 416.613 274.328 554.477 251.649C586.572 246.36 620.595 241.006 657.34 236.677C842.032 215.026 1058.87 205.724 1112.81 317.626" stroke="url(#paint8_linear_289_2971)" stroke-miterlimit="10"/>
<path d="M-520.648 636.169C-298.254 285.241 -145.813 176.211 -37.0175 161.701C37.4292 151.755 79.9981 190.183 137.677 220.919C171.009 239.102 205.922 254.623 242.043 267.318C354.217 305.953 427.397 289.733 565.796 268.471C597.893 263.51 631.945 258.156 668.396 253.391C854.035 229.224 1067.99 206.448 1125.56 312.598" stroke="url(#paint9_linear_289_2971)" stroke-miterlimit="10"/>
<path d="M-508.507 653.887C-289.172 308.791 -136.778 196.976 -26.6928 178.529C47.9128 166.042 92.3862 200.829 150.05 229.272C183.892 246.373 218.844 261.477 254.701 274.496C365.155 313.712 438.179 305.056 577.144 285.485C609.389 280.904 643.353 275.524 679.48 270.351C865.863 243.668 1077.01 207.472 1138.29 307.843" stroke="url(#paint10_linear_289_2971)" stroke-miterlimit="10"/>
<path d="M-496.365 671.605C-280.06 332.368 -127.684 217.742 -16.2224 195.356C58.5716 180.356 104.978 211.448 162.511 237.597C195.583 252.617 229.445 267.769 267.475 281.673C376.239 321.443 449.107 320.406 588.607 302.361C620.943 298.135 654.848 292.728 690.739 287.147C877.864 257.948 1086.24 208.333 1151.13 302.951" stroke="url(#paint11_linear_289_2971)" stroke-miterlimit="10"/>
<path d="M-484.222 689.322C-270.945 356.027 -118.792 238.563 -5.83719 212.211C69.145 194.672 117.572 222.012 174.944 245.924C208.799 260.038 242.746 274.753 280.194 288.851C387.267 329.284 459.95 335.729 600.015 319.238C632.44 315.394 666.316 309.959 701.824 303.943C889.664 272.175 1095.3 209.194 1163.83 298.061" stroke="url(#paint12_linear_289_2971)" stroke-miterlimit="10"/>
<path d="M-472.138 707.04C-261.863 379.495 -109.58 259.41 4.54646 229.066C79.7173 209.069 130.164 232.55 187.376 254.278C222.043 267.433 256.046 281.738 292.794 296.057C398.205 336.99 470.674 351.108 611.42 336.17C643.965 332.653 677.753 327.191 712.967 320.795C901.549 286.402 1104.41 210.056 1176.59 293.171" stroke="url(#paint13_linear_289_2971)" stroke-miterlimit="10"/>
<path d="M-459.907 724.73C-252.748 403.045 -100.57 280.314 14.9613 245.895C90.3499 223.412 142.787 243.006 199.781 262.578C235.259 274.746 269.376 288.695 305.629 303.208C409.292 344.722 481.663 366.403 622.828 353.02C656.861 349.46 690.676 344.274 724.14 337.482C913.406 300.602 1113.61 210.973 1189.34 288.254" stroke="url(#paint14_linear_289_2971)" stroke-miterlimit="10"/>
<path d="M-447.764 742.448C-243.635 426.623 -91.3293 301.134 25.2575 262.725C100.864 237.784 155.321 253.436 212.242 270.905C248.532 282.059 282.705 295.654 318.346 310.387C420.348 352.483 492.533 381.755 634.176 369.898C668.182 366.752 701.935 361.563 735.224 354.362C925.261 314.639 1122.63 211.837 1202.13 283.256" stroke="url(#paint15_linear_289_2971)" stroke-miterlimit="10"/>
<path d="M-435.621 760.166C-234.551 450.175 -82.0865 322.147 35.7586 279.554C111.525 252.21 168.029 263.811 224.646 279.207C261.746 289.319 295.976 302.64 331.034 317.568C431.316 360.245 503.375 397.08 645.64 386.776C679.618 384.008 713.313 378.787 746.425 371.159C937.088 328.867 1131.75 212.729 1214.89 278.478" stroke="url(#paint16_linear_289_2971)" stroke-miterlimit="10"/>
<path d="M-423.442 777.883C-225.431 473.871 -73.072 343.091 46.1484 296.425C122.22 266.623 180.655 274.147 237.054 287.55C275.082 296.565 309.28 309.613 343.755 324.761C442.346 367.963 514.22 412.442 657.05 403.693C690.994 401.285 724.637 396.032 757.571 387.996C948.917 342.999 1140.86 213.61 1227.64 273.606" stroke="url(#paint17_linear_289_2971)" stroke-miterlimit="10"/>
<path d="M-411.294 795.601C-216.46 497.322 -63.8837 364.089 56.5662 313.378C132.885 281.174 193.25 284.565 249.49 296.058C288.242 304.059 322.643 316.778 356.476 332.12C453.377 375.956 525.094 427.969 668.458 420.692C702.368 418.646 735.963 413.359 768.715 404.915C960.744 357.186 1150.12 214.683 1240.4 268.844" stroke="url(#paint18_linear_289_2971)" stroke-miterlimit="10"/>
<path d="M-399.145 813.319C-207.224 520.907 -54.6655 385.085 66.9541 330.139C143.578 295.505 205.844 294.711 261.925 304.238C301.487 310.979 335.916 323.615 369.196 339.205C464.376 383.622 535.937 443.195 679.866 437.526C713.742 435.855 747.295 430.534 779.859 421.669C972.54 371.127 1159.09 215.403 1253.15 263.865" stroke="url(#paint19_linear_289_2971)" stroke-miterlimit="10"/>
<path d="M-386.965 831.009C-198.104 544.464 -45.4447 406.217 77.2568 346.982C154.157 309.973 218.294 304.938 274.217 312.582C314.588 318.091 349.104 330.589 381.771 346.318C475.29 391.342 546.695 458.503 691.158 454.36C725.004 453.037 758.528 447.681 790.917 438.423C984.103 384.851 1168.08 216.314 1265.85 258.969" stroke="url(#paint20_linear_289_2971)" stroke-miterlimit="10"/>
<path d="M-374.845 848.727C-73.304 393.161 141.337 305.801 286.77 320.925C445.531 337.431 506.957 474.739 702.683 471.275C932.286 467.181 1160.13 210.947 1278.67 254.101" stroke="url(#paint21_linear_289_2971)" stroke-miterlimit="10"/>
<defs>
<linearGradient id="paint0_linear_289_2971" x1="187.729" y1="5.96038" x2="190.003" y2="472.77" gradientUnits="userSpaceOnUse">
<stop stop-color="#515151"/>
<stop offset="1" stop-color="#515151" stop-opacity="0"/>
</linearGradient>
<linearGradient id="paint1_linear_289_2971" x1="200.322" y1="23.6344" x2="202.597" y2="490.512" gradientUnits="userSpaceOnUse">
<stop stop-color="#515151"/>
<stop offset="1" stop-color="#515151" stop-opacity="0"/>
</linearGradient>
<linearGradient id="paint2_linear_289_2971" x1="212.8" y1="41.1745" x2="215.075" y2="508.201" gradientUnits="userSpaceOnUse">
<stop stop-color="#515151"/>
<stop offset="1" stop-color="#515151" stop-opacity="0"/>
</linearGradient>
<linearGradient id="paint3_linear_289_2971" x1="225.304" y1="58.533" x2="227.58" y2="525.836" gradientUnits="userSpaceOnUse">
<stop stop-color="#515151"/>
<stop offset="1" stop-color="#515151" stop-opacity="0"/>
</linearGradient>
<linearGradient id="paint4_linear_289_2971" x1="237.894" y1="75.7374" x2="240.174" y2="543.605" gradientUnits="userSpaceOnUse">
<stop stop-color="#515151"/>
<stop offset="1" stop-color="#515151" stop-opacity="0"/>
</linearGradient>
<linearGradient id="paint5_linear_289_2971" x1="250.293" y1="92.6276" x2="252.577" y2="561.322" gradientUnits="userSpaceOnUse">
<stop stop-color="#515151"/>
<stop offset="1" stop-color="#515151" stop-opacity="0"/>
</linearGradient>
<linearGradient id="paint6_linear_289_2971" x1="262.882" y1="109.381" x2="265.17" y2="579.038" gradientUnits="userSpaceOnUse">
<stop stop-color="#515151"/>
<stop offset="1" stop-color="#515151" stop-opacity="0"/>
</linearGradient>
<linearGradient id="paint7_linear_289_2971" x1="275.396" y1="126.099" x2="277.689" y2="596.753" gradientUnits="userSpaceOnUse">
<stop stop-color="#515151"/>
<stop offset="1" stop-color="#515151" stop-opacity="0"/>
</linearGradient>
<linearGradient id="paint8_linear_289_2971" x1="287.908" y1="142.386" x2="290.208" y2="614.469" gradientUnits="userSpaceOnUse">
<stop stop-color="#515151"/>
<stop offset="1" stop-color="#515151" stop-opacity="0"/>
</linearGradient>
<linearGradient id="paint9_linear_289_2971" x1="300.435" y1="158.568" x2="302.743" y2="632.158" gradientUnits="userSpaceOnUse">
<stop stop-color="#515151"/>
<stop offset="1" stop-color="#515151" stop-opacity="0"/>
</linearGradient>
<linearGradient id="paint10_linear_289_2971" x1="312.93" y1="174.407" x2="315.246" y2="649.874" gradientUnits="userSpaceOnUse">
<stop stop-color="#515151"/>
<stop offset="1" stop-color="#515151" stop-opacity="0"/>
</linearGradient>
<linearGradient id="paint11_linear_289_2971" x1="325.48" y1="189.957" x2="327.807" y2="667.589" gradientUnits="userSpaceOnUse">
<stop stop-color="#515151"/>
<stop offset="1" stop-color="#515151" stop-opacity="0"/>
</linearGradient>
<linearGradient id="paint12_linear_289_2971" x1="337.958" y1="205.186" x2="340.297" y2="685.305" gradientUnits="userSpaceOnUse">
<stop stop-color="#515151"/>
<stop offset="1" stop-color="#515151" stop-opacity="0"/>
</linearGradient>
<linearGradient id="paint13_linear_289_2971" x1="350.431" y1="220.069" x2="352.784" y2="703.021" gradientUnits="userSpaceOnUse">
<stop stop-color="#515151"/>
<stop offset="1" stop-color="#515151" stop-opacity="0"/>
</linearGradient>
<linearGradient id="paint14_linear_289_2971" x1="362.977" y1="234.48" x2="365.346" y2="720.71" gradientUnits="userSpaceOnUse">
<stop stop-color="#515151"/>
<stop offset="1" stop-color="#515151" stop-opacity="0"/>
</linearGradient>
<linearGradient id="paint15_linear_289_2971" x1="375.489" y1="248.413" x2="377.876" y2="738.426" gradientUnits="userSpaceOnUse">
<stop stop-color="#515151"/>
<stop offset="1" stop-color="#515151" stop-opacity="0"/>
</linearGradient>
<linearGradient id="paint16_linear_289_2971" x1="387.983" y1="261.804" x2="390.391" y2="756.142" gradientUnits="userSpaceOnUse">
<stop stop-color="#515151"/>
<stop offset="1" stop-color="#515151" stop-opacity="0"/>
</linearGradient>
<linearGradient id="paint17_linear_289_2971" x1="400.41" y1="261.765" x2="402.904" y2="773.857" gradientUnits="userSpaceOnUse">
<stop stop-color="#515151"/>
<stop offset="1" stop-color="#515151" stop-opacity="0"/>
</linearGradient>
<linearGradient id="paint18_linear_289_2971" x1="412.812" y1="260.54" x2="415.399" y2="791.574" gradientUnits="userSpaceOnUse">
<stop stop-color="#515151"/>
<stop offset="1" stop-color="#515151" stop-opacity="0"/>
</linearGradient>
<linearGradient id="paint19_linear_289_2971" x1="425.21" y1="258.464" x2="427.893" y2="809.29" gradientUnits="userSpaceOnUse">
<stop stop-color="#515151"/>
<stop offset="1" stop-color="#515151" stop-opacity="0"/>
</linearGradient>
<linearGradient id="paint20_linear_289_2971" x1="437.592" y1="255.986" x2="440.374" y2="826.979" gradientUnits="userSpaceOnUse">
<stop stop-color="#515151"/>
<stop offset="1" stop-color="#515151" stop-opacity="0"/>
</linearGradient>
<linearGradient id="paint21_linear_289_2971" x1="450" y1="253.097" x2="452.881" y2="844.695" gradientUnits="userSpaceOnUse">
<stop stop-color="#515151"/>
<stop offset="1" stop-color="#515151" stop-opacity="0"/>
</linearGradient>
</defs>
</svg>
