<svg width="720" height="777" viewBox="0 0 720 777" fill="none" xmlns="http://www.w3.org/2000/svg">
<path d="M1241.73 282.824C1216.97 124.717 978.054 25.4284 799.055 28.321C592.778 31.6741 515.91 169.935 358.652 128.762C215.145 91.2351 205.843 -43.1656 100.385 -63.8399C3.46685 -82.8357 -149.177 -0.807253 -399.011 402.765" stroke="url(#paint0_linear_289_2994)" stroke-miterlimit="10"/>
<path d="M-386.87 420.51C-140.065 22.7678 12.6457 -62.401 110.913 -47.016C183.745 -35.5208 212.202 29.625 269.454 80.3777C298.035 106.507 333.104 125.598 371.514 135.936C497.327 169.89 571.696 93.0215 705.694 59.5489C739.848 50.9203 774.972 46.0754 810.343 45.1139C990.056 39.6786 1226.23 125.601 1254.63 277.93" stroke="url(#paint1_linear_289_2994)" stroke-miterlimit="10"/>
<path d="M-374.699 438.2C-130.923 46.3161 21.7678 -41.9652 121.181 -30.1627C194.257 -21.481 224.36 40.5441 281.712 88.7025C310.967 113.884 345.981 132.494 384.085 143.113C508.091 177.649 582.48 108.371 716.955 76.4248C751.129 68.2389 786.12 63.3835 821.369 61.9363C1001.83 54.4768 1235.23 126.488 1267.27 273.037" stroke="url(#paint2_linear_289_2994)" stroke-miterlimit="10"/>
<path d="M-362.558 455.836C-121.87 69.8921 30.8893 -21.475 131.564 -13.3373C204.944 -7.41488 236.574 51.4355 294.114 97.0263C323.981 121.245 358.914 139.385 396.685 150.289C519.001 185.407 593.145 123.693 728.244 93.3003C762.452 85.4851 797.351 80.5903 832.511 78.676C1013.69 68.8921 1244.31 127.292 1280 268.062" stroke="url(#paint3_linear_289_2994)" stroke-miterlimit="10"/>
<path d="M-350.416 473.608C-112.758 93.4405 39.9524 -0.957039 141.977 3.51527C215.573 6.70626 248.876 62.3812 306.575 105.323C337.075 128.591 371.989 146.28 409.489 157.464C530.114 193.163 604.103 139.041 739.883 110.174C774.057 102.806 808.789 97.908 843.771 95.5244C1025.69 83.4161 1253.54 128.232 1292.9 263.223" stroke="url(#paint4_linear_289_2994)" stroke-miterlimit="10"/>
<path d="M-338.392 491.327C-103.675 116.99 49.0861 16.9127 152.389 20.3412C226.126 22.7123 261.177 73.1362 318.977 113.647C350.095 135.924 384.989 153.161 422.205 164.64C541.14 200.921 614.914 154.39 751.172 127.078C785.337 120.083 819.95 115.154 854.796 112.32C1037.46 97.7778 1262.54 129.091 1305.54 258.331" stroke="url(#paint5_linear_289_2994)" stroke-miterlimit="10"/>
<path d="M-326.103 509.044C-94.5625 140.566 58.0806 40.2715 162.772 37.031C236.715 35.0871 273.539 84.0551 331.41 121.999C363.111 143.276 397.99 160.071 434.922 171.843C552.167 208.706 625.814 169.739 762.578 143.981C796.737 137.394 831.236 132.45 865.939 129.17C1049.35 112.303 1271.65 129.923 1318.3 253.466" stroke="url(#paint6_linear_289_2994)" stroke-miterlimit="10"/>
<path d="M-313.962 526.761C-85.5386 164.115 67.114 60.7353 173.185 54.0205C247.285 49.2363 285.956 94.7276 343.841 130.296C376.1 150.553 410.978 166.897 447.638 178.937C563.163 216.409 636.684 185.061 773.983 160.774C805.93 155.157 840.04 149.749 877.081 145.882C1061.26 126.609 1280.76 130.837 1331.05 248.546" stroke="url(#paint7_linear_289_2994)" stroke-miterlimit="10"/>
<path d="M-301.82 544.479C-76.3675 187.692 76.1502 81.5005 183.568 70.7927C257.856 63.4137 298.404 105.428 356.331 138.566C389.149 157.791 424.046 173.72 460.442 186.087C574.277 224.14 647.613 200.328 785.477 177.65C817.572 172.36 851.595 167.007 888.34 162.677C1073.03 141.027 1289.87 131.724 1343.81 243.626" stroke="url(#paint8_linear_289_2994)" stroke-miterlimit="10"/>
<path d="M-289.648 562.169C-67.2543 211.241 85.1868 102.211 193.983 87.7012C268.429 77.7549 310.998 116.183 368.677 146.919C402.009 165.102 436.922 180.623 473.043 193.318C585.217 231.953 658.397 215.733 796.796 194.471C828.893 189.51 862.945 184.156 899.396 179.391C1085.04 155.224 1298.99 132.448 1356.56 238.598" stroke="url(#paint9_linear_289_2994)" stroke-miterlimit="10"/>
<path d="M-277.507 579.887C-58.1716 234.791 94.2224 122.976 204.307 104.529C278.913 92.0424 323.386 126.829 381.05 155.272C414.892 172.373 449.844 187.477 485.701 200.496C596.155 239.712 669.179 231.056 808.144 211.485C840.389 206.904 874.353 201.524 910.48 196.351C1096.86 169.668 1308.01 133.472 1369.29 233.843" stroke="url(#paint10_linear_289_2994)" stroke-miterlimit="10"/>
<path d="M-265.365 597.605C-49.0597 258.368 103.316 143.742 214.778 121.356C289.572 106.356 335.978 137.448 393.511 163.597C426.583 178.617 460.445 193.769 498.476 207.673C607.239 247.443 680.107 246.406 819.607 228.361C851.943 224.135 885.848 218.728 921.739 213.147C1108.86 183.948 1317.24 134.333 1382.13 228.951" stroke="url(#paint11_linear_289_2994)" stroke-miterlimit="10"/>
<path d="M-253.222 615.322C-39.9452 282.026 112.208 164.563 225.163 138.211C300.145 120.671 348.572 148.012 405.944 171.923C439.799 186.038 473.746 200.753 511.194 214.85C618.267 255.284 690.95 261.729 831.015 245.237C863.44 241.393 897.316 235.959 932.824 229.943C1120.66 198.175 1326.3 135.194 1394.83 224.061" stroke="url(#paint12_linear_289_2994)" stroke-miterlimit="10"/>
<path d="M-241.138 633.04C-30.8627 305.495 121.42 185.41 235.546 155.066C310.717 135.069 361.164 158.55 418.376 180.278C453.043 193.433 487.045 207.738 523.794 222.057C629.205 262.99 701.674 277.108 842.42 262.17C874.965 258.653 908.753 253.191 943.967 246.795C1132.55 212.402 1335.41 136.056 1407.59 219.171" stroke="url(#paint13_linear_289_2994)" stroke-miterlimit="10"/>
<path d="M-228.907 650.73C-21.748 329.045 130.43 206.314 245.961 171.895C321.35 149.412 373.787 169.006 430.781 188.578C466.259 200.746 500.376 214.695 536.629 229.208C640.292 270.722 712.663 292.403 853.828 279.02C887.861 275.46 921.676 270.274 955.14 263.482C1144.41 226.602 1344.61 136.973 1420.35 214.254" stroke="url(#paint14_linear_289_2994)" stroke-miterlimit="10"/>
<path d="M-216.764 668.448C-12.6352 352.623 139.671 227.134 256.258 188.725C331.864 163.784 386.321 179.436 443.242 196.905C479.532 208.059 513.705 221.654 549.346 236.387C651.348 278.483 723.533 307.755 865.176 295.898C899.182 292.752 932.935 287.563 966.224 280.362C1156.26 240.639 1353.63 137.837 1433.13 209.256" stroke="url(#paint15_linear_289_2994)" stroke-miterlimit="10"/>
<path d="M-204.621 686.165C-3.55118 376.174 148.913 248.146 266.759 205.553C342.525 178.209 399.029 189.811 455.646 205.207C492.746 215.319 526.976 228.64 562.034 243.567C662.316 286.244 734.375 323.079 876.64 312.776C910.618 310.008 944.313 304.787 977.425 297.159C1168.09 254.867 1362.75 138.728 1445.89 204.478" stroke="url(#paint16_linear_289_2994)" stroke-miterlimit="10"/>
<path d="M-192.442 703.883C5.56921 399.871 157.928 269.091 277.148 222.425C353.22 192.623 411.655 200.147 468.054 213.55C506.082 222.565 540.28 235.613 574.755 250.761C673.346 293.963 745.22 338.442 888.05 329.693C921.994 327.285 955.637 322.032 988.571 313.996C1179.92 268.999 1371.86 139.61 1458.64 199.606" stroke="url(#paint17_linear_289_2994)" stroke-miterlimit="10"/>
<path d="M-180.294 721.601C14.5404 423.322 167.116 290.089 287.566 239.378C363.885 207.174 424.25 210.565 480.49 222.058C519.242 230.059 553.643 242.778 587.476 258.12C684.377 301.956 756.094 353.969 899.458 346.692C933.368 344.646 966.963 339.359 999.715 330.915C1191.74 283.186 1381.12 140.683 1471.4 194.844" stroke="url(#paint18_linear_289_2994)" stroke-miterlimit="10"/>
<path d="M-168.145 739.319C23.7761 446.907 176.335 311.085 297.954 256.139C374.578 221.505 436.844 220.711 492.925 230.238C532.487 236.979 566.916 249.615 600.196 265.205C695.376 309.622 766.937 369.195 910.866 363.526C944.742 361.855 978.295 356.534 1010.86 347.669C1203.54 297.127 1390.09 141.403 1484.15 189.865" stroke="url(#paint19_linear_289_2994)" stroke-miterlimit="10"/>
<path d="M-155.965 757.009C32.8963 470.464 185.555 332.217 308.257 272.982C385.157 235.973 449.294 230.938 505.217 238.582C545.588 244.091 580.104 256.589 612.771 272.318C706.29 317.342 777.695 384.503 922.158 380.36C956.004 379.037 989.528 373.681 1021.92 364.423C1215.1 310.851 1399.08 142.314 1496.85 184.969" stroke="url(#paint20_linear_289_2994)" stroke-miterlimit="10"/>
<path d="M-143.845 774.726C157.696 319.161 372.337 231.801 517.77 246.925C676.531 263.431 737.957 400.739 933.683 397.274C1163.29 393.181 1391.13 136.947 1509.67 180.1" stroke="url(#paint21_linear_289_2994)" stroke-miterlimit="10"/>
<defs>
<linearGradient id="paint0_linear_289_2994" x1="418.729" y1="-68.0396" x2="421.003" y2="398.77" gradientUnits="userSpaceOnUse">
<stop stop-color="#515151"/>
<stop offset="1" stop-color="#515151" stop-opacity="0"/>
</linearGradient>
<linearGradient id="paint1_linear_289_2994" x1="431.322" y1="-50.3656" x2="433.597" y2="416.512" gradientUnits="userSpaceOnUse">
<stop stop-color="#515151"/>
<stop offset="1" stop-color="#515151" stop-opacity="0"/>
</linearGradient>
<linearGradient id="paint2_linear_289_2994" x1="443.8" y1="-32.8253" x2="446.075" y2="434.202" gradientUnits="userSpaceOnUse">
<stop stop-color="#515151"/>
<stop offset="1" stop-color="#515151" stop-opacity="0"/>
</linearGradient>
<linearGradient id="paint3_linear_289_2994" x1="456.304" y1="-15.467" x2="458.58" y2="451.836" gradientUnits="userSpaceOnUse">
<stop stop-color="#515151"/>
<stop offset="1" stop-color="#515151" stop-opacity="0"/>
</linearGradient>
<linearGradient id="paint4_linear_289_2994" x1="468.894" y1="1.73761" x2="471.174" y2="469.606" gradientUnits="userSpaceOnUse">
<stop stop-color="#515151"/>
<stop offset="1" stop-color="#515151" stop-opacity="0"/>
</linearGradient>
<linearGradient id="paint5_linear_289_2994" x1="481.293" y1="18.6276" x2="483.577" y2="487.322" gradientUnits="userSpaceOnUse">
<stop stop-color="#515151"/>
<stop offset="1" stop-color="#515151" stop-opacity="0"/>
</linearGradient>
<linearGradient id="paint6_linear_289_2994" x1="493.882" y1="35.3805" x2="496.17" y2="505.038" gradientUnits="userSpaceOnUse">
<stop stop-color="#515151"/>
<stop offset="1" stop-color="#515151" stop-opacity="0"/>
</linearGradient>
<linearGradient id="paint7_linear_289_2994" x1="506.396" y1="52.0989" x2="508.689" y2="522.753" gradientUnits="userSpaceOnUse">
<stop stop-color="#515151"/>
<stop offset="1" stop-color="#515151" stop-opacity="0"/>
</linearGradient>
<linearGradient id="paint8_linear_289_2994" x1="518.908" y1="68.3864" x2="521.208" y2="540.469" gradientUnits="userSpaceOnUse">
<stop stop-color="#515151"/>
<stop offset="1" stop-color="#515151" stop-opacity="0"/>
</linearGradient>
<linearGradient id="paint9_linear_289_2994" x1="531.435" y1="84.5684" x2="533.743" y2="558.158" gradientUnits="userSpaceOnUse">
<stop stop-color="#515151"/>
<stop offset="1" stop-color="#515151" stop-opacity="0"/>
</linearGradient>
<linearGradient id="paint10_linear_289_2994" x1="543.93" y1="100.407" x2="546.246" y2="575.874" gradientUnits="userSpaceOnUse">
<stop stop-color="#515151"/>
<stop offset="1" stop-color="#515151" stop-opacity="0"/>
</linearGradient>
<linearGradient id="paint11_linear_289_2994" x1="556.48" y1="115.957" x2="558.807" y2="593.589" gradientUnits="userSpaceOnUse">
<stop stop-color="#515151"/>
<stop offset="1" stop-color="#515151" stop-opacity="0"/>
</linearGradient>
<linearGradient id="paint12_linear_289_2994" x1="568.958" y1="131.185" x2="571.297" y2="611.305" gradientUnits="userSpaceOnUse">
<stop stop-color="#515151"/>
<stop offset="1" stop-color="#515151" stop-opacity="0"/>
</linearGradient>
<linearGradient id="paint13_linear_289_2994" x1="581.431" y1="146.069" x2="583.784" y2="629.021" gradientUnits="userSpaceOnUse">
<stop stop-color="#515151"/>
<stop offset="1" stop-color="#515151" stop-opacity="0"/>
</linearGradient>
<linearGradient id="paint14_linear_289_2994" x1="593.977" y1="160.48" x2="596.346" y2="646.71" gradientUnits="userSpaceOnUse">
<stop stop-color="#515151"/>
<stop offset="1" stop-color="#515151" stop-opacity="0"/>
</linearGradient>
<linearGradient id="paint15_linear_289_2994" x1="606.489" y1="174.413" x2="608.876" y2="664.426" gradientUnits="userSpaceOnUse">
<stop stop-color="#515151"/>
<stop offset="1" stop-color="#515151" stop-opacity="0"/>
</linearGradient>
<linearGradient id="paint16_linear_289_2994" x1="618.983" y1="187.803" x2="621.391" y2="682.141" gradientUnits="userSpaceOnUse">
<stop stop-color="#515151"/>
<stop offset="1" stop-color="#515151" stop-opacity="0"/>
</linearGradient>
<linearGradient id="paint17_linear_289_2994" x1="631.41" y1="187.765" x2="633.904" y2="699.857" gradientUnits="userSpaceOnUse">
<stop stop-color="#515151"/>
<stop offset="1" stop-color="#515151" stop-opacity="0"/>
</linearGradient>
<linearGradient id="paint18_linear_289_2994" x1="643.812" y1="186.54" x2="646.399" y2="717.574" gradientUnits="userSpaceOnUse">
<stop stop-color="#515151"/>
<stop offset="1" stop-color="#515151" stop-opacity="0"/>
</linearGradient>
<linearGradient id="paint19_linear_289_2994" x1="656.21" y1="184.464" x2="658.893" y2="735.29" gradientUnits="userSpaceOnUse">
<stop stop-color="#515151"/>
<stop offset="1" stop-color="#515151" stop-opacity="0"/>
</linearGradient>
<linearGradient id="paint20_linear_289_2994" x1="668.592" y1="181.986" x2="671.374" y2="752.979" gradientUnits="userSpaceOnUse">
<stop stop-color="#515151"/>
<stop offset="1" stop-color="#515151" stop-opacity="0"/>
</linearGradient>
<linearGradient id="paint21_linear_289_2994" x1="681" y1="179.096" x2="683.881" y2="770.695" gradientUnits="userSpaceOnUse">
<stop stop-color="#515151"/>
<stop offset="1" stop-color="#515151" stop-opacity="0"/>
</linearGradient>
</defs>
</svg>
