<svg width="36" height="26" viewBox="0 0 36 26" fill="none" xmlns="http://www.w3.org/2000/svg">
<path d="M35.445 2C34.752 0.809 33.477 0 32 0H18V2H35.445ZM0 20H36V22H0V20ZM18 12H36V14H18V12ZM18 8H36V10H18V8ZM0 16H36V18H0V16ZM4 26H32C33.477 26 34.752 25.191 35.445 24H0.555C1.248 25.191 2.523 26 4 26ZM18 4H36V6H18V4Z" fill="#B22334"/>
<path d="M0.068 22.679C0.085 22.772 0.104 22.865 0.127 22.956C0.153 23.057 0.185 23.154 0.219 23.252C0.308 23.511 0.416 23.761 0.552 23.995L0.555 24H35.445L35.447 23.996C35.582 23.763 35.69 23.513 35.779 23.255C35.813 23.156 35.846 23.057 35.872 22.954C35.895 22.864 35.914 22.772 35.931 22.679C35.972 22.459 36 22.233 36 22H0C0 22.233 0.028 22.458 0.068 22.679ZM0 18H36V20H0V18ZM0 14V16H36V14H18H0ZM18 10H36V12H18V10ZM18 6H36V8H18V6ZM0 4C0 3.767 0.03 3.543 0.068 3.321C0.028 3.542 0 3.767 0 4ZM0.555 2L0.552 2.005L0.555 2ZM0.128 3.044C0.153 2.942 0.188 2.845 0.22 2.747C0.186 2.845 0.154 2.943 0.128 3.044ZM18 4H36C36 3.767 35.972 3.541 35.931 3.32C35.914 3.228 35.896 3.136 35.872 3.046C35.845 2.943 35.813 2.843 35.778 2.744C35.689 2.486 35.581 2.237 35.446 2.004C35.447 2.003 35.446 2.001 35.445 2H18V4Z" fill="#EEEEEE"/>
<path d="M18 0H4C1.791 0 0 1.791 0 4V14H18V0Z" fill="#3C3B6E"/>
<path d="M2.001 2.726L2.619 3.175L2.383 3.9L3 3.452L3.618 3.9L3.382 3.175L4 2.726H3.236L3 2L2.765 2.726H2.001ZM4.001 4.726L4.619 5.175L4.383 5.9L5 5.452L5.618 5.9L5.382 5.175L6 4.726H5.236L5 4L4.765 4.726H4.001ZM8.001 4.726L8.619 5.175L8.383 5.9L9 5.452L9.618 5.9L9.382 5.175L10 4.726H9.236L9 4L8.765 4.726H8.001ZM12.001 4.726L12.619 5.175L12.383 5.9L13 5.452L13.618 5.9L13.382 5.175L14 4.726H13.236L13 4L12.765 4.726H12.001ZM4.001 8.726L4.619 9.175L4.383 9.9L5 9.452L5.618 9.9L5.382 9.175L6 8.726H5.236L5 8L4.765 8.726H4.001ZM8.001 8.726L8.619 9.175L8.383 9.9L9 9.452L9.618 9.9L9.382 9.175L10 8.726H9.236L9 8L8.765 8.726H8.001ZM12.001 8.726L12.619 9.175L12.383 9.9L13 9.452L13.618 9.9L13.382 9.175L14 8.726H13.236L13 8L12.765 8.726H12.001ZM6.001 2.726L6.619 3.175L6.383 3.9L7 3.452L7.618 3.9L7.382 3.175L8 2.726H7.236L7 2L6.765 2.726H6.001ZM10.001 2.726L10.619 3.175L10.383 3.9L11 3.452L11.618 3.9L11.382 3.175L12 2.726H11.236L11 2L10.765 2.726H10.001ZM14.001 2.726L14.619 3.175L14.383 3.9L15 3.452L15.618 3.9L15.382 3.175L16 2.726H15.236L15 2L14.765 2.726H14.001ZM2.001 6.726L2.619 7.175L2.383 7.9L3 7.452L3.618 7.9L3.382 7.175L4 6.726H3.236L3 6L2.765 6.726H2.001ZM6.383 7.9L7 7.452L7.618 7.9L7.382 7.175L8 6.726H7.236L7 6L6.765 6.726H6.001L6.619 7.175L6.383 7.9ZM10.001 6.726L10.619 7.175L10.383 7.9L11 7.452L11.618 7.9L11.382 7.175L12 6.726H11.236L11 6L10.765 6.726H10.001ZM14.001 6.726L14.619 7.175L14.383 7.9L15 7.452L15.618 7.9L15.382 7.175L16 6.726H15.236L15 6L14.765 6.726H14.001ZM2.001 10.726L2.619 11.175L2.383 11.9L3 11.452L3.618 11.9L3.382 11.175L4 10.726H3.236L3 10L2.765 10.726H2.001ZM6.383 11.9L7 11.452L7.618 11.9L7.382 11.175L8 10.726H7.236L7 10L6.765 10.726H6.001L6.619 11.175L6.383 11.9ZM10.001 10.726L10.619 11.175L10.383 11.9L11 11.452L11.618 11.9L11.382 11.175L12 10.726H11.236L11 10L10.765 10.726H10.001ZM14.001 10.726L14.619 11.175L14.383 11.9L15 11.452L15.618 11.9L15.382 11.175L16 10.726H15.236L15 10L14.765 10.726H14.001Z" fill="white"/>
</svg>
